<svg id="Chromosome_8b_Markers" data-name="Chromosome 8b Markers" xmlns="http://www.w3.org/2000/svg" viewBox="0 0 63 168"><title>chromosome 8b inspect markers</title><path id="_8b_Atp7b_leader" data-name="8b Atp7b leader" d="M34,126.15a.75.75,0,0,1-.4-1.39l28-17.93a.75.75,0,0,1,.81,1.27L34.43,126A.72.72,0,0,1,34,126.15Z" style="fill:#6d2b00"/><path id="_8b_Atp7b_marker" data-name="8b Atp7b marker" d="M8.76,127.77l22.74-.3c0-1.37,0-2.7-.08-4l-22.74.3C8.75,125.05,8.78,126.39,8.76,127.77Z" style="opacity:0.5"/><path id="_8b_Mc1r_leader" data-name="8b Mc1r leader" d="M38.41,40.41a.75.75,0,0,1-.07-1.5L62,36.68a.75.75,0,0,1,.82.68.74.74,0,0,1-.68.81L38.48,40.4Z" style="fill:#6d2b00"/><path id="_8b_Mc1r_marker" data-name="8b Mc1r marker" d="M36.44,35.53,23.54,24.27a11.42,11.42,0,0,0-4.32,1.53L35.51,40A11.2,11.2,0,0,0,36.44,35.53Z" style="opacity:0.5"/></svg>