<?xml version="1.0" encoding="utf-8"?>
<svg id="Chromatin_Paths" data-name="Chromatin Paths" viewBox="0 0 394 182" xmlns="http://www.w3.org/2000/svg">
  <title>Chromatin paths</title>
  <path class="id-2a" d="M 259.049 45.585 C 266.149 35.355 258.609 21.515 247.229 24.705 C 240.729 26.705 239.229 36.505 244.829 39.925 C 251.199 43.675 258.059 39.595 265.229 39.265 C 269.919 39.055 274.179 42.025 275.049 44.575 C 275.809 46.745 275.369 49.815 273.689 51.315 C 269.639 54.925 261.219 46.905 255.319 50.685 C 251.989 52.805 251.639 57.285 251.599 57.885 C 251.089 64.365 257.359 68.885 258.679 69.765 C 267.679 75.765 279.019 70.495 281.679 69.245 C 284.939 67.715 288.929 65.855 289.369 62.455 C 289.929 58.115 284.319 54.075 281.239 53.075 C 280.321 52.755 279.341 52.655 278.379 52.785 C 276.982 53.055 275.717 53.788 274.789 54.865 C 273.214 56.528 272.421 58.783 272.609 61.065 C 273.409 66.415 282.139 65.925 285.829 73.515 C 286.329 74.515 287.769 77.625 286.439 80.215 C 284.799 83.405 280.149 83.565 279.349 83.575 C 275.349 83.635 270.679 81.245 270.719 78.975 C 270.779 75.975 278.929 72.315 282.069 74.735 C 285.209 77.155 283.719 85.605 279.149 88.895 C 277.771 89.834 276.185 90.421 274.529 90.605 C 269.529 91.275 267.239 88.075 264.529 89.455 C 262.709 90.654 261.773 92.818 262.149 94.965 C 262.629 97.765 265.569 99.125 266.829 99.705 C 271.199 101.705 275.689 100.445 277.599 99.875 C 285.269 97.595 286.599 92.815 289.879 93.645 C 293.509 94.565 296.769 101.645 294.079 106.245 C 292.999 108.095 290.559 110.245 288.079 109.945 C 284.439 109.435 284.019 103.945 279.979 103.345 C 278.263 103.082 276.539 103.771 275.479 105.145 C 274.334 107.16 274.75 109.701 276.479 111.245 C 279.019 113.195 282.889 110.005 284.779 111.745 C 286.269 113.105 285.539 116.625 284.419 118.835 C 281.649 124.285 273.529 127.725 266.649 125.385 C 266.239 125.245 258.319 122.385 257.719 115.845 C 257.119 109.305 264.109 103.105 268.079 103.965 C 269.615 104.389 270.89 105.463 271.569 106.905 C 272.138 108.14 272.216 109.545 271.789 110.835 C 271.109 112.605 269.569 113.115 268.569 113.945 C 264.179 117.585 269.479 127.945 266.439 129.945 C 263.929 131.605 259.089 125.395 253.029 127.385 C 251.489 127.885 251.649 128.335 250.209 128.735 C 245.529 130.015 239.279 126.565 236.559 121.435 C 233.989 116.595 235.339 111.705 235.809 110.015 C 235.999 109.335 238.599 100.405 245.639 98.955 C 246.954 98.566 248.361 98.625 249.639 99.125 C 254.959 101.625 255.899 115.125 250.099 119.315 C 248.221 120.678 245.791 121.023 243.609 120.235 C 240.239 118.875 237.699 114.015 239.759 110.725 C 241.519 107.925 245.869 107.435 248.349 108.955 C 248.649 109.135 250.289 110.135 250.349 111.735 C 250.349 113.525 248.349 115.335 246.699 115.005 C 245.049 114.675 244.389 112.125 244.409 110.645 C 244.409 107.425 247.409 105.235 247.899 104.915 C 252.209 101.855 256.339 104.455 259.019 101.425 C 260.639 99.615 259.419 98.425 260.909 97.025 C 263.969 94.245 269.389 99.185 275.299 96.495 C 276.949 95.745 276.429 95.405 279.889 93.315 C 283.659 91.045 284.889 91.055 286.689 89.605 C 288.891 87.669 290.387 85.055 290.939 82.175 C 292.249 76.365 289.119 71.475 285.319 65.565 C 281.319 59.355 277.229 52.925 272.499 53.565 C 269.499 53.975 266.599 57.125 266.449 59.995 C 266.349 62.155 267.679 62.635 268.579 66.385 C 269.119 68.605 269.859 71.655 268.359 74.265 C 266.859 76.875 264.219 77.605 262.009 78.265 C 260.589 78.705 253.319 79.645 249.569 75.675 C 248.989 75.065 246.889 72.425 247.359 69.325 C 247.979 65.325 252.719 62.325 256.449 62.535 C 262.449 62.915 267.449 71.625 266.289 78.915 C 264.869 88.185 253.749 94.055 249.369 91.915 C 247.559 91.035 246.929 88.815 245.059 88.855 C 242.889 88.855 242.579 92.105 240.379 92.675 C 236.379 93.675 232.829 84.545 228.649 85.315 C 226.149 85.775 224.879 89.525 224.559 91.475 C 223.709 96.625 227.219 102.635 231.319 102.985 C 233.979 103.205 237.079 101.065 237.159 99.105 C 237.159 97.725 235.729 97.395 234.809 95.455 C 233.571 92.312 234.273 88.736 236.609 86.295 C 239.429 83.535 244.239 83.825 247.379 85.155 C 254.989 88.375 252.379 97.525 260.459 104.365 C 266.059 109.115 275.369 111.515 281.289 107.695 C 284.689 105.505 287.609 100.855 286.839 96.395 C 286.459 94.245 285.229 92.165 282.719 90.055 C 275.099 83.655 268.059 87.975 255.719 83.715 C 247.849 81.005 238.609 75.085 239.089 69.795 C 239.457 67.649 240.844 65.814 242.809 64.875 C 245.409 63.555 249.349 63.815 251.329 66.435 C 253.309 69.055 251.949 72.805 251.809 73.155 C 250.185 76.455 246.716 78.435 243.049 78.155 C 236.999 77.645 232.609 69.725 233.449 63.515 C 233.672 61.891 234.245 60.336 235.129 58.955 C 239.829 51.455 252.129 49.785 255.129 53.195 C 257.809 56.195 255.339 61.395 249.369 60.395 C 245.949 59.815 244.369 56.025 243.849 54.755 C 242.025 50.066 242.949 44.753 246.249 40.955 C 247.149 39.955 250.079 36.595 253.249 37.175 C 257.809 38.005 259.349 46.265 259.809 48.755 C 260.655 53.561 260.231 58.504 258.579 63.095" style="fill:none;stroke:#000;stroke-miterlimit:10;stroke-width:1.5px"/>
  <path id="X2_and_Y" data-name="X2 and Y" d="M 207.759 23.115 C 211.026 22.199 213.145 19.046 212.759 15.675 C 212.119 11.435 207.119 9.325 204.489 10.255 C 200.799 11.565 200.709 19.315 199.199 19.255 C 197.519 19.195 198.539 10.165 194.199 8.065 C 191.199 6.615 185.989 7.895 184.079 12.065 C 182.409 15.765 183.849 20.435 187.079 22.065 C 188.679 22.855 191.219 23.155 192.539 21.855 C 194.599 19.855 193.199 14.695 190.759 11.855 C 187.579 8.185 180.999 6.555 176.859 9.005 C 170.779 12.615 171.289 23.505 175.919 27.925 C 177.588 29.414 179.613 30.448 181.799 30.925 C 186.369 32.075 188.229 30.505 193.749 30.675 C 197.879 30.805 202.749 31.215 204.219 33.945 C 206.039 37.295 203.219 43.785 198.379 44.685 C 196.374 44.949 194.341 44.496 192.639 43.405 C 188.709 40.305 188.589 32.765 191.489 28.245 C 195.589 21.865 205.679 21.565 212.419 24.595 C 218.142 27.234 222.215 32.502 223.329 38.705 C 223.459 39.575 224.329 46.855 220.169 49.065 C 218.169 50.145 213.959 50.275 212.409 47.335 C 211.206 44.788 211.677 41.765 213.599 39.705 C 216.999 36.375 222.959 39.705 225.169 36.365 C 226.049 35.045 225.979 33.175 227.359 32.585 C 230.499 31.245 233.019 33.415 231.849 35.985 C 229.909 40.225 223.259 43.455 217.979 43.355 C 209.509 43.205 203.269 43.915 200.839 47.595 C 199.259 49.985 199.159 53.795 200.659 54.835 C 202.659 56.235 205.979 51.685 212.589 51.735 C 214.139 51.735 217.679 51.735 219.819 53.855 C 221.309 55.305 222.739 58.225 221.239 60.045 C 219.419 62.265 213.039 61.145 213.939 56.985 C 215.199 51.235 225.559 55.255 227.499 56.185 C 228.069 56.455 229.799 57.185 230.419 57.545 C 231.039 57.905 237.819 61.005 237.059 66.025 C 236.059 72.835 229.999 75.455 224.829 72.595 C 222.529 71.325 221.829 68.135 222.219 66.025 C 222.689 63.385 225.219 63.405 226.079 60.845 C 227.359 57.195 224.079 55.075 224.229 51.075 C 224.379 46.075 229.379 41.445 232.789 39.675 C 238.929 36.475 244.549 39.575 249.339 34.525 C 250.352 33.445 251.173 32.201 251.769 30.845 C 254.319 24.105 248.089 12.845 238.909 11.845 C 234.626 11.457 230.415 13.132 227.569 16.355 C 222.829 22.075 224.999 31.245 228.439 36.695 C 232.029 42.395 237.869 44.815 237.029 47.615 C 236.569 49.135 233.909 50.525 232.269 50.085 C 230.439 49.595 229.809 46.955 230.349 45.355 C 231.209 42.865 236.109 40.955 238.799 43.125 C 239.881 44.031 240.578 45.314 240.749 46.715 C 240.849 49.625 237.869 51.175 234.629 54.425 C 234.109 54.955 229.479 59.595 227.679 65.515 C 226.129 70.595 225.509 78.965 229.969 81.585 C 232.597 83.235 236.063 82.474 237.759 79.875 C 239.609 76.875 238.219 71.585 235.149 69.695 C 230.369 66.695 222.569 70.615 219.959 76.335 C 218.359 79.815 218.589 85.515 222.529 87.905 C 228.689 91.655 234.879 87.905 234.319 82.905 C 233.999 80.105 230.809 78.285 227.889 76.995 C 219.299 73.225 211.079 74.705 210.609 72.475 C 210.339 71.205 213.419 70.475 213.179 68.755 C 212.799 66.115 206.499 65.665 206.539 64.275 C 206.539 63.055 211.619 61.395 214.879 63.055 C 219.679 65.495 219.879 75.745 215.959 78.565 C 213.019 80.665 207.479 79.355 204.109 76.095 C 197.659 69.865 202.449 60.265 196.489 55.995 C 193.069 53.545 187.199 53.215 183.909 55.925 C 181.909 57.595 179.909 61.255 181.119 64.655 C 182.919 69.715 190.719 69.485 193.119 66.885 C 197.009 62.645 193.319 50.065 186.439 47.235 C 183.869 46.175 180.579 46.005 178.379 43.585 C 177.295 41.713 177.638 39.343 179.209 37.855 C 182.609 34.855 202.439 37.335 207.099 49.675 C 208.088 52.227 208.256 55.024 207.579 57.675 C 206.129 62.415 200.519 67.165 195.579 66.055 C 190.639 64.945 188.899 58.495 188.699 57.705 C 187.369 52.575 190.019 47.985 190.509 47.175 C 192.509 43.805 194.609 44.465 197.009 41.505 C 201.939 35.415 198.119 28.005 201.529 26.345 C 204.739 24.795 208.679 31.245 212.899 29.515 C 215.449 28.465 215.319 25.345 218.079 22.805 C 223.009 18.245 232.999 19.225 234.589 22.665 C 235.419 24.455 234.059 27.665 232.189 29.095 C 229.189 31.435 226.119 28.625 220.409 30.245 C 215.719 31.565 215.169 34.125 212.829 33.785 C 207.459 33.025 201.759 19.725 206.639 13.375 C 208.389 11.105 212.029 9.065 215.429 9.795 C 215.809 9.885 218.999 10.715 220.299 13.035 C 221.299 14.885 220.479 16.535 220.749 18.525 C 221.299 22.525 225.619 26.245 230.209 27.185 C 235.069 28.185 240.509 25.865 241.749 22.185 C 242.254 20.834 242.218 19.34 241.649 18.015 C 240.299 15.705 236.969 15.215 234.419 16.065 C 231.259 17.125 228.859 20.875 229.689 22.775 C 231.239 26.325 243.409 21.895 245.579 26.115 C 246.579 28.115 244.999 31.725 242.859 33.245 C 242.559 33.455 239.679 35.105 237.999 33.795 C 236.319 32.485 236.519 28.015 240.999 28.165 C 242.999 28.235 244.469 30.395 244.609 30.705 C 245.529 32.635 244.609 35.595 243.049 37.555" style="fill:none;stroke:#000;stroke-miterlimit:10;stroke-width:1.5px"/>
  <path id="id-8a" data-name="8a" d="M 243.149 139.405 C 247.699 133.275 248.969 126.115 246.149 121.085 C 245.629 120.175 243.439 116.085 239.039 115.615 C 236.259 115.345 227.709 117.065 229.099 124.615 C 229.729 128.065 233.519 130.805 236.889 130.095 C 241.189 129.185 245.779 122.225 231.889 113.095 C 229.189 111.305 222.689 107.975 217.729 110.495 C 211.729 113.495 213.799 122.375 207.529 125.085 C 204.638 126.336 201.294 125.911 198.809 123.975 C 193.719 119.415 196.809 105.285 204.809 101.285 C 205.369 101.005 209.689 98.945 213.809 100.925 C 218.149 102.985 220.199 108.415 219.359 112.325 C 219.129 113.425 218.899 113.325 218.639 114.445 C 217.519 119.305 221.499 121.895 221.169 125.185 C 220.759 129.375 213.489 133.045 207.169 133.585 C 198.689 134.305 196.819 129.035 190.029 129.695 C 179.769 130.695 169.639 144.165 172.379 152.215 C 173.729 156.155 178.229 159.055 180.169 158.135 C 182.779 156.885 179.639 149.195 184.389 143.405 C 186.299 141.075 187.809 141.095 188.129 141.115 C 192.999 141.355 194.129 148.815 187.399 148.725 C 184.589 148.725 183.819 146.045 180.229 143.885 C 174.369 140.365 166.889 143.185 165.439 143.765 C 159.639 146.105 156.359 152.485 157.239 155.115 C 158.529 158.975 163.869 160.065 164.479 160.185 C 173.209 161.855 177.029 152.185 184.479 153.495 C 191.159 154.645 196.999 163.855 195.029 169.005 C 194.151 171.038 192.35 172.526 190.189 173.005 C 186.861 173.615 183.51 172.065 181.819 169.135 C 178.869 163.575 186.099 156.215 186.529 155.795 C 187.459 154.875 191.599 150.795 197.269 150.795 C 202.749 150.865 203.429 154.795 210.009 155.165 C 214.069 155.405 215.639 154.025 218.739 155.425 C 219.399 155.735 222.879 157.305 223.369 160.685 C 223.639 162.565 223.079 165.575 220.609 166.565 C 215.529 168.565 212.229 162.365 216.149 159.355 C 219.029 157.145 222.959 163.565 228.589 162.825 C 232.789 162.275 237.289 158.045 237.369 153.145 C 237.469 147.995 232.589 144.845 231.909 144.425 C 229.049 142.645 224.639 141.615 221.159 143.425 C 217.419 145.345 217.679 149.025 212.499 159.915 C 208.149 169.045 206.269 170.015 204.869 170.215 C 201.409 170.458 198.275 168.181 197.439 164.815 C 196.879 162.095 198.189 158.815 200.439 157.965 C 203.599 156.745 206.859 161.155 208.339 160.095 C 209.819 159.035 208.759 152.315 204.599 147.775 C 201.049 143.895 197.219 143.625 196.719 140.435 C 196.389 138.335 197.789 136.505 198.719 135.335 C 201.829 131.265 206.149 130.435 209.949 128.975 C 215.958 126.415 221.262 122.442 225.409 117.395 C 229.249 112.535 234.139 103.095 230.549 96.605 C 228.879 93.705 225.149 90.595 222.289 91.705 C 219.429 92.815 217.949 97.415 219.859 100.645 C 221.099 102.735 223.859 104.245 225.859 103.555 C 229.319 102.395 230.509 95.095 228.619 89.735 C 228.369 89.015 225.619 81.435 219.029 80.865 C 212.299 80.275 208.199 87.655 207.759 88.465 C 203.989 95.465 207.049 103.775 210.389 106.775 C 212.459 108.635 215.849 106.775 216.389 104.425 C 217.005 101.976 216.487 99.38 214.979 97.355 C 212.299 94.125 207.109 93.865 203.589 95.865 C 203.139 96.115 199.379 98.325 199.189 101.865 C 198.999 105.405 202.419 106.405 204.189 111.865 C 204.771 113.848 205.047 115.909 205.009 117.975 C 204.789 126.035 196.859 136.245 187.009 136.835 C 179.079 137.305 167.109 128.945 172.259 125.475 C 173.919 124.365 175.859 127.415 179.479 127.965 C 182.042 128.354 184.647 127.601 186.609 125.905 C 189.669 123.095 190.369 117.455 188.239 115.855 C 184.969 113.395 181.239 117.965 183.509 120.235 C 185.779 122.505 190.279 117.415 197.759 117.235 C 201.539 117.198 205.259 118.19 208.519 120.105 C 212.998 122.642 216.556 126.536 218.679 131.225 C 221.399 136.915 223.839 147.355 219.419 150.315 C 216.689 152.145 211.779 150.815 208.919 148.025 C 208.339 147.465 205.179 144.245 206.019 140.655 C 207.179 135.655 215.109 134.565 216.019 134.455 C 219.439 134.045 220.789 135.035 224.479 135.625 C 232.049 136.825 233.479 133.805 244.099 133.295 C 250.189 133.005 255.249 132.855 259.039 136.225 C 263.829 140.485 263.199 147.725 260.649 149.885 C 256.859 153.095 251.349 149.955 248.649 145.635 C 247.309 143.515 242.389 137.925 237.229 137.475 C 232.069 137.025 225.509 141.685 224.729 148.115 C 224.079 153.405 228.779 161.045 235.409 161.175 C 245.159 161.355 248.319 154.495 249.959 147.955 C 255.469 125.895 254.219 119.675 258.889 116.335 C 261.346 114.48 264.56 113.956 267.479 114.935 C 273.189 117.265 275.479 128.085 271.479 131.935 C 269.349 133.935 265.059 134.385 262.989 132.325 C 260.659 129.995 261.629 124.955 264.549 122.475 C 267.819 119.951 272.455 120.246 275.379 123.165 C 278.559 126.775 276.089 133.605 272.549 137.005 C 269.549 139.885 265.439 140.305 257.339 141.005 C 248.059 141.815 245.849 140.535 240.469 142.665 C 238.199 143.555 233.099 145.665 232.179 149.875 C 231.179 154.635 237.179 158.645 241.279 156.875 C 244.279 155.575 245.789 151.405 244.129 148.825 C 242.469 146.245 238.679 147.015 237.249 144.595 C 236.349 143.065 236.109 140.155 240.079 134.065" style="fill:none;stroke:#000;stroke-miterlimit:10;stroke-width:1.5px"/>
  <path id="id-2b" data-name="2b" d="M 139.149 74.785 C 141.443 73.804 143.654 72.637 145.759 71.295 C 147.297 70.437 148.705 69.362 149.939 68.105 C 151.739 66.105 154.239 62.105 152.939 60.195 C 151.409 57.835 144.089 58.295 142.079 61.875 C 140.069 65.455 143.989 70.775 147.389 73.245 C 150.789 75.715 155.989 76.995 160.149 75.015 C 165.719 72.365 165.149 65.015 169.249 64.545 C 171.509 64.305 173.749 66.265 174.829 67.945 C 175.089 68.345 176.829 71.085 175.759 73.735 C 174.419 77.225 169.449 77.735 167.109 78.065 C 164.599 78.375 160.689 78.865 157.889 76.245 C 154.119 72.715 155.669 66.675 155.889 66.135 C 157.167 62.703 159.657 59.858 162.889 58.135 C 169.429 54.425 178.269 54.655 179.319 57.345 C 180.369 60.035 174.479 64.185 175.249 65.155 C 176.199 66.355 184.639 58.955 187.149 60.865 C 190.019 63.045 186.149 78.175 176.559 82.455 C 171.159 84.865 166.069 83.005 165.109 85.255 C 163.699 88.545 167.619 91.965 171.199 91.965 C 174.999 91.965 176.459 90.145 181.489 89.055 C 187.009 87.845 194.429 89.055 199.269 93.995 C 202.18 97.08 203.914 101.091 204.169 105.325 C 204.239 106.525 204.619 114.145 198.659 119.755 C 197.839 120.535 191.599 126.225 183.659 124.305 C 178.969 123.155 173.379 119.225 173.319 114.655 C 173.239 108.465 180.319 104.575 186.509 104.325 C 195.219 103.975 198.259 107.325 205.019 104.795 C 212.139 102.105 214.879 93.505 215.149 92.685 C 215.829 90.799 216.138 88.799 216.059 86.795 C 215.909 83.585 214.519 76.955 209.959 75.725 C 205.039 74.385 198.169 79.805 198.709 85.205 C 199.029 88.415 202.109 92.055 205.909 91.975 C 209.329 91.905 212.609 88.825 212.279 86.645 C 211.949 84.465 208.559 84.885 204.739 81.735 C 200.089 77.905 197.319 70.985 199.399 68.165 C 200.605 66.686 202.644 66.185 204.399 66.935 C 205.779 67.615 206.779 69.415 206.309 70.715 C 205.709 72.405 203.069 72.645 202.309 72.715 C 199.969 72.925 197.979 72.125 194.409 70.015 C 187.479 65.925 186.339 63.875 183.939 64.335 C 181.129 64.875 179.749 68.235 179.539 68.735 C 178.219 72.443 179.198 76.581 182.039 79.305 C 184.149 81.235 186.539 81.305 186.759 82.855 C 186.939 84.195 185.399 85.355 184.759 85.945 C 179.669 90.715 186.869 102.165 183.649 110.945 C 180.899 118.455 170.549 123.765 163.339 121.495 C 159.669 120.345 154.929 116.645 155.389 112.055 C 155.819 107.765 160.689 103.735 164.839 104.745 C 167.349 105.365 170.169 107.975 169.749 110.915 C 169.276 113.596 166.92 115.531 164.199 115.475 C 162.977 115.213 161.87 114.568 161.039 113.635 C 159.529 112.295 159.389 111.495 158.199 110.005 C 155.549 106.685 152.949 106.625 153.029 105.065 C 153.089 103.945 154.539 102.595 155.819 102.015 C 156.539 101.695 157.049 101.665 157.439 101.115 C 157.899 100.488 157.93 99.645 157.519 98.985 C 156.819 98.105 155.219 98.605 154.959 98.695 C 153.869 99.035 152.439 100.085 152.459 101.515 C 152.479 102.945 154.049 104.205 155.369 104.515 C 157.729 104.995 158.959 102.575 160.789 103.105 C 162.619 103.635 163.789 106.485 163.149 108.425 C 162.149 111.275 156.949 112.295 153.369 111.565 C 145.149 109.905 138.399 97.705 141.639 89.125 C 142.962 85.929 145.369 83.301 148.439 81.705 C 149.209 81.335 154.209 78.925 156.889 81.065 C 159.889 83.435 158.889 90.125 155.659 93.815 C 154.11 95.451 152.119 96.6 149.929 97.125 C 141.796 100.048 133.087 94.528 132.259 85.925 C 131.939 81.175 133.169 74.925 136.439 74.065 C 139.189 73.295 140.439 77.065 144.359 77.435 C 150.789 78.025 152.939 67.675 159.769 67.355 C 165.909 67.065 170.769 75.005 171.509 76.185 C 173.452 79.348 174.471 82.993 174.449 86.705 C 174.449 89.995 174.379 95.575 170.129 98.195 C 166.499 100.435 161.209 99.685 157.929 96.475 C 154.859 93.475 153.059 87.755 156.099 84.095 C 159.139 80.435 165.309 80.875 168.099 83.245 C 169.899 84.775 169.469 86.475 171.619 87.795 C 174.279 89.435 176.339 87.705 178.009 89.235 C 180.009 91.035 177.869 94.105 179.929 96.505 C 181.989 98.905 185.849 98.255 186.249 98.185 C 189.959 97.595 192.019 94.525 192.889 93.185 C 195.479 89.325 196.779 83.065 193.689 78.105 C 191.895 75.439 189.217 73.491 186.129 72.605 C 179.479 70.365 169.919 71.775 165.319 78.605 C 161.799 83.875 162.879 89.795 163.139 91.215 C 163.989 95.384 166.134 99.178 169.269 102.055 C 174.659 107.465 185.269 113.135 191.869 108.955 C 196.369 106.105 198.739 98.885 196.979 96.955 C 196.23 96.304 195.208 96.064 194.249 96.315 C 192.809 96.663 191.724 97.85 191.509 99.315 C 191.389 101.315 194.009 101.945 196.789 105.465 C 198.059 107.065 200.789 110.525 199.659 112.795 C 198.809 114.475 196.049 115.095 193.989 114.555 C 192.507 114.108 191.238 113.138 190.419 111.825 C 188.419 108.965 189.929 107.105 188.519 104.605 C 186.919 101.765 182.759 100.145 179.019 100.805 C 176.396 101.319 174.082 102.846 172.579 105.055" style="fill:none;stroke:#000;stroke-miterlimit:10;stroke-width:1.5px"/>
  <path id="X1" d="M 145.399 106.425 C 147.229 104.915 149.399 102.995 149.059 98.425 C 148.819 95.425 146.859 91.425 143.629 91.165 C 141.591 91.156 139.696 92.21 138.629 93.945 C 137.318 95.79 137.144 98.212 138.179 100.225 C 140.179 103.425 146.549 103.225 149.979 100.315 C 151.935 98.468 152.977 95.852 152.829 93.165 C 152.419 87.765 146.829 85.015 145.629 84.455 C 140.989 82.195 133.539 81.735 129.019 86.595 C 126.343 89.541 125.23 93.585 126.019 97.485 C 126.809 101.095 129.639 103.805 131.139 105.195 C 137.209 110.785 142.699 108.865 143.889 112.125 C 145.079 115.385 141.009 120.705 136.049 123.495 C 125.359 129.495 114.499 120.785 108.479 127.075 C 106.113 129.665 105.111 133.221 105.779 136.665 C 105.969 137.545 106.779 141.205 109.049 141.835 C 113.119 142.965 116.049 132.835 125.969 129.425 C 127.879 128.755 132.129 127.365 135.719 129.425 C 137.455 130.512 138.786 132.139 139.509 134.055 C 140.949 137.425 141.319 143.055 137.899 146.175 C 134.479 149.295 128.479 149.175 127.389 147.255 C 126.579 145.875 128.179 142.715 130.319 142.075 C 131.614 141.674 133.025 142.002 134.009 142.935 C 136.389 145.785 129.859 151.935 131.399 159.795 C 131.574 161.33 132.346 162.735 133.549 163.705 C 134.99 164.644 136.743 164.978 138.429 164.635 C 142.749 163.825 143.739 160.545 148.369 156.735 C 150.129 155.285 155.769 150.655 162.579 151.075 C 163.869 151.155 169.109 151.475 170.579 154.975 C 171.302 157.149 170.835 159.542 169.349 161.285 C 169.139 161.555 166.559 164.675 163.149 163.835 C 160.899 163.285 158.789 161.125 159.039 159.155 C 159.289 157.185 162.219 155.535 164.519 155.215 C 173.129 153.995 178.789 168.775 185.719 166.985 C 187.579 166.505 189.579 164.815 189.629 163.075 C 189.679 161.335 187.779 159.605 185.909 159.175 C 182.709 158.415 180.269 161.625 176.579 164.125 C 170.309 168.375 160.009 170.895 153.799 166.895 C 147.589 162.895 147.619 153.845 147.629 153.075 C 147.749 142.555 157.899 133.075 166.509 132.915 C 167.279 132.915 173.109 133.095 175.629 137.695 C 177.859 141.775 176.139 147.795 173.149 148.995 C 170.629 149.995 169.149 146.805 163.839 146.145 C 158.739 145.495 157.839 148.195 152.839 147.935 C 147.839 147.675 143.839 144.615 139.719 141.385 C 133.539 136.515 133.179 133.565 129.879 133.445 C 125.829 133.295 122.029 137.605 120.479 141.265 C 119.879 142.685 118.869 145.065 119.619 147.555 C 121.239 152.885 129.799 155.905 135.909 153.745 C 143.719 150.975 145.159 141.335 145.349 139.845 C 145.726 136.119 145.09 132.36 143.509 128.965 C 141.624 124.652 138.729 120.855 135.069 117.895 C 132.239 115.375 123.589 107.895 111.909 107.835 C 109.139 107.835 103.779 107.835 102.189 110.975 C 101.31 112.993 101.768 115.344 103.339 116.885 C 106.219 119.485 112.969 117.585 116.099 113.355 C 119.099 109.355 118.399 103.745 116.099 100.215 C 112.239 94.285 103.309 93.335 97.099 96.215 C 96.639 96.435 88.099 100.535 88.099 108.705 C 88.099 116.335 95.579 120.465 96.039 120.705 C 99.039 122.285 101.599 123.795 103.249 122.795 C 104.899 121.795 108.059 119.865 109.839 121.975 C 111.619 124.085 112.839 122.465 113.839 121.135 C 115.037 119.576 116.376 118.13 117.839 116.815 C 119.379 115.425 138.489 102.575 148.489 107.055 C 151.639 108.465 154.489 112.055 153.869 114.425 C 153.429 116.065 151.679 117.815 149.709 117.305 C 148.051 116.763 146.847 115.323 146.609 113.595 C 146.449 110.525 150.529 107.455 154.429 106.995 C 158.879 106.475 163.039 109.695 165.019 112.595 C 168.031 117.388 167.649 123.57 164.069 127.955 C 159.229 133.855 149.549 133.955 146.669 130.285 C 145.907 129.16 145.554 127.809 145.669 126.455 C 146.199 122.075 152.879 119.615 156.869 118.915 C 162.949 117.855 169.499 119.635 172.999 123.515 C 174.255 125.003 175.13 126.774 175.549 128.675 C 175.925 130.362 175.866 132.117 175.379 133.775 C 174.946 135.635 173.984 137.33 172.609 138.655 C 171.51 139.742 169.988 140.291 168.449 140.155 C 167.183 139.809 166.084 139.022 165.349 137.935 C 162.889 134.315 169.449 129.255 167.459 126.125 C 166.029 123.885 160.859 123.595 157.699 125.015 C 153.109 127.085 150.889 132.315 151.319 136.605 C 151.319 137.025 152.319 142.865 155.979 143.805 C 158.287 144.229 160.619 143.198 161.859 141.205 C 164.439 136.575 157.319 127.685 153.039 123.625 C 148.759 119.565 142.409 113.965 133.639 114.375 C 128.704 114.63 123.991 116.503 120.229 119.705 C 113.089 126.305 109.709 138.955 113.799 143.045 C 115.979 145.225 121.119 145.895 123.939 143.815 C 124.149 143.665 126.429 141.615 126.499 139.275 C 126.619 135.035 119.579 130.425 113.299 128.965 C 103.569 126.695 97.989 132.965 93.399 129.235 C 90.669 126.995 90.199 122.465 90.129 120.535 C 89.799 112.345 96.479 103.095 104.129 101.795 C 112.769 100.335 117.189 110.155 125.919 107.395 C 126.829 107.105 131.839 105.185 133.349 101.075 C 134.478 97.482 133.492 93.558 130.799 90.925 C 126.159 86.655 116.539 88.375 112.889 93.865 C 111.238 96.592 110.648 99.831 111.229 102.965" style="fill:none;stroke:#000;stroke-miterlimit:10;stroke-width:1.5px;fill-rule:evenodd"/>
  <path id="id-8b" data-name="8b" d="M 168.789 33.525 C 171.023 35.873 172.896 38.538 174.349 41.435 C 175.349 44.035 177.779 50.275 174.659 55.435 C 173.147 57.718 171.083 59.582 168.659 60.855 C 163.909 63.035 157.659 62.175 156.559 59.375 C 155.559 56.895 158.559 51.435 162.719 49.555 C 171.289 45.715 179.909 55.755 184.669 52.025 C 187.549 49.765 188.169 44.095 185.669 40.275 C 183.786 37.621 180.926 35.823 177.719 35.275 C 168.609 33.945 164.909 46.395 149.719 50.755 C 148.409 51.135 139.139 54.025 137.129 50.755 C 135.799 48.605 137.339 43.035 140.399 41.295 C 140.989 40.955 143.329 40.245 144.399 40.905 C 145.469 41.565 146.039 44.175 145.069 44.985 C 143.915 45.592 142.528 45.554 141.409 44.885 C 139.779 43.545 139.719 40.025 140.739 37.945 C 142.519 34.345 147.459 32.485 151.399 33.375 C 153.729 33.895 156.029 35.925 159.739 39.375 C 164.179 43.515 164.969 44.375 166.879 45.455 C 171.359 48.015 178.359 47.565 183.209 42.605 C 187.389 38.325 188.959 30.875 186.059 25.125 C 181.809 16.705 170.489 16.805 169.059 16.925 C 167.999 17.015 159.969 17.925 158.399 23.395 C 157.659 25.995 157.769 29.705 160.019 31.735 C 161.622 33.068 163.634 33.813 165.719 33.845 C 171.039 33.845 174.659 29.145 175.359 28.075 C 177.729 24.425 179.699 17.385 176.239 12.635 C 174.554 10.535 172.187 9.092 169.549 8.555 C 162.549 6.835 154.829 11.125 151.609 16.715 C 150.609 18.375 148.899 22.805 151.049 25.965 C 152.819 28.575 157.259 29.395 160.129 27.965 C 164.309 25.835 165.339 19.285 163.189 16.395 C 159.399 11.325 144.999 16.505 144.119 16.885 C 137.269 19.835 128.259 26.885 129.519 31.275 C 130.919 36.145 144.249 32.685 149.849 40.735 C 154.259 47.075 151.239 55.965 151.079 56.395 C 150.249 58.745 148.699 63.985 144.569 65.265 C 142.19 65.833 139.687 65.546 137.499 64.455 C 131.699 61.965 130.729 57.455 125.679 53.935 C 123.399 52.315 118.479 49.085 112.739 50.235 C 106.559 51.475 99.889 58.235 101.229 64.525 C 102.299 69.525 109.029 74.055 112.809 72.685 C 112.949 72.635 115.299 71.685 115.899 69.935 C 116.412 68.261 115.996 66.441 114.809 65.155 C 112.259 62.465 106.249 63.155 102.919 63.885 C 96.919 65.245 88.559 67.455 86.069 75.045 C 84.759 79.045 84.409 84.805 87.689 88.045 C 89.689 90.045 92.259 90.825 95.139 91.245 C 104.479 92.615 108.389 88.185 113.369 89.805 C 118.659 91.515 121.079 95.175 120.619 98.065 C 120.089 101.405 115.199 106.835 107.769 105.355 C 103.669 104.535 101.879 101.065 100.599 97.645 C 97.959 90.645 105.419 80.075 113.509 77.805 C 117.019 76.805 118.179 78.655 122.379 77.275 C 128.729 75.185 129.989 70.965 134.719 70.385 C 138.299 69.945 142.889 71.385 144.469 75.515 C 145.719 78.815 144.199 83.325 140.779 85.515 C 138.003 87.047 134.612 86.94 131.939 85.235 C 128.239 82.895 129.069 78.235 129.019 75.805 C 129.028 71.202 130.879 66.795 134.159 63.565 C 141.929 55.085 157.219 53.565 161.429 59.305 C 162.759 61.125 162.739 64.595 161.849 67.045 C 160.849 69.725 158.559 72.585 155.899 72.355 C 154.569 72.245 152.719 71.525 150.559 68.095 C 146.729 62.095 147.669 58.615 145.419 53.855 C 144.329 51.555 140.849 44.855 134.419 42.415 C 127.989 39.975 120.819 42.655 117.039 46.415 C 115.771 47.881 115.097 49.768 115.149 51.705 C 115.634 54.344 117.851 56.314 120.529 56.485 C 121.419 56.565 122.609 56.025 123.099 56.275 C 125.199 57.335 122.849 62.175 124.719 63.455 C 126.369 64.585 130.119 63.305 132.069 60.925 C 132.931 59.758 133.63 58.48 134.149 57.125 C 136.329 50.535 130.439 45.695 132.039 40.125 C 133.759 34.125 141.839 35.445 143.859 28.125 C 144.149 27.055 144.939 23.125 143.399 20.695 C 140.229 15.695 128.029 15.455 120.819 21.505 C 114.219 27.045 110.689 38.375 114.819 43.325 C 117.069 46.055 122.339 48.455 124.819 46.625 C 126.199 45.361 127.155 43.703 127.559 41.875 C 127.759 38.085 124.119 34.315 120.949 33.575 C 114.469 32.065 102.849 44.025 105.499 52.115 C 106.555 54.686 108.195 56.976 110.289 58.805 C 113.519 61.595 115.819 61.025 119.609 64.115 C 121.669 65.618 123.443 67.477 124.849 69.605 C 127.179 73.605 127.979 79.475 124.959 83.285 C 123.956 84.412 122.716 85.304 121.329 85.895 C 117.709 87.515 114.189 86.385 112.149 85.535 C 108.709 84.105 107.799 81.595 104.659 79.535 C 102.889 78.385 96.409 74.865 91.819 76.825 C 86.129 79.265 82.879 89.125 88.369 96.035 C 88.589 96.325 92.229 100.715 97.899 100.715 C 103.319 100.715 107.299 97.815 107.679 93.575 C 108.299 86.835 100.099 85.325 94.879 73.525 C 93.399 70.195 89.969 62.265 93.719 55.965 C 96.859 50.685 104.979 47.085 109.969 50.025 C 115.969 53.565 113.229 64.635 112.819 66.555 C 112.039 70.175 110.819 75.115 107.609 75.805 C 106.128 75.845 104.743 75.079 103.989 73.805 C 103.577 72.466 103.896 71.01 104.829 69.965" style="fill:none;stroke:#000;stroke-miterlimit:10;stroke-width:1.5px"/>
  <g id="chromosome_8a-2">
    <path d="" style="fill:none;fill-rule:nonzero;stroke:black;stroke-width:1.5px;"/>
  </g>
  <g id="chromosome_X2-2">
    <path d="" style="fill:none;fill-rule:nonzero;stroke:black;stroke-width:1.5px;"/>
  </g>
  <g id="chromosome_X1-2">
    <path d="" style="fill:none;fill-rule:nonzero;stroke:black;stroke-width:1.5px;"/>
  </g>
  <g id="chromosome_2b-2">
    <path d="" style="fill:none;fill-rule:nonzero;stroke:black;stroke-width:1.5px;"/>
  </g>
  <g id="Chromosome_Y-2">
    <path d="" style="fill:none;fill-rule:nonzero;stroke:black;stroke-width:1.5px;"/>
  </g>
  <g id="chromosome_8b-2">
    <path d="" style="fill:none;fill-rule:nonzero;stroke:black;stroke-width:1.5px;"/>
  </g>
  <g id="chromosome_2a-2">
    <path d="" style="fill:none;fill-rule:nonzero;stroke:black;stroke-width:1.5px;"/>
  </g>
</svg>