<svg id="Chromosome_2b_Markers" data-name="Chromosome 2b Markers" xmlns="http://www.w3.org/2000/svg" viewBox="0 0 63 168"><title>chromosome 2b inspect markers</title><path id="_2b_Bloc1s6_leader" data-name="2b Bloc1s6 leader" d="M62,98.22a.73.73,0,0,1-.52-.21L25.2,62.48a.75.75,0,0,1,1.05-1.07L62.57,96.94A.75.75,0,0,1,62,98.22Z" style="fill:#6d2b00"/><path id="_2b_Bloc1s6_marker" data-name="2b Bloc1s6 marker" d="M23.28,59.85,0,59.94c0,1.34,0,2.67,0,4l23.26-.09C23.26,62.52,23.25,61.19,23.28,59.85Z" style="opacity:0.5"/><path id="_2b_Agouti_leader" data-name="2b Agouti leader" d="M27.08,47.54a.75.75,0,0,1-.29-1.45l35-14.33a.75.75,0,0,1,.57,1.39l-35,14.33A.71.71,0,0,1,27.08,47.54Z" style="fill:#6d2b00"/><path id="_2b_Agouti_marker" data-name="2b Agouti marker" d="M1.44,43.85l22.88,4.33c.21-1.32.44-2.63.71-3.94L2.17,39.91C1.9,41.22,1.66,42.53,1.44,43.85Z" style="opacity:0.5"/></svg>