<svg id="Chromosome_8a_Markers" data-name="Chromosome 8a Markers" xmlns="http://www.w3.org/2000/svg" viewBox="0 0 63 168"><title>chromosome 8a inspect markers</title><path id="_8a_Atp7b_leader" data-name="8a Atp7b leader" d="M32.66,120a.76.76,0,0,1-.7-.47.74.74,0,0,1,.42-1l29.38-11.76a.75.75,0,0,1,1,.42.74.74,0,0,1-.42,1L32.93,119.92A.86.86,0,0,1,32.66,120Z" style="fill:#6d2b00"/><path id="_8a_Atp7b_marker" data-name="8a Atp7b marker" d="M13.05,135.3l18.64-13c-.78-1.07-1.53-2.15-2.25-3.31L10.77,132C11.53,133.18,12.29,134.26,13.05,135.3Z" style="opacity:0.5"/><path id="_8a_Mc1r_leader" data-name="8a Mc1r leader" d="M62,38.18a.57.57,0,0,1-.18,0L32.52,30.7a.75.75,0,0,1,.37-1.46L62.23,36.7A.75.75,0,0,1,62,38.18Z" style="fill:#6d2b00"/><path id="_8a_Mc1r_marker" data-name="8a Mc1r marker" d="M28.57,28.14l-17.47.25a11.36,11.36,0,0,0-2.09,4l21.76-.32A11.2,11.2,0,0,0,28.57,28.14Z" style="opacity:0.5"/></svg>