<svg id="sperm_hi" data-name="sperm hi" xmlns="http://www.w3.org/2000/svg" viewBox="0 0 16 16"><title>sperm hi</title><g id="sperm_hi-2" data-name="sperm hi"><path d="M15.78,15.47a3.74,3.74,0,0,1-1.65-.68A6.54,6.54,0,0,1,13,13.34a5.89,5.89,0,0,0-.66-.76,2.9,2.9,0,0,0-.89-.56c-.63-.26-1.26-.38-1.79-.63a2.34,2.34,0,0,1-1.17-1.13,4.85,4.85,0,0,1-.25-1.73,4.37,4.37,0,0,0-.51-2A5,5,0,0,0,6.41,5.1a1,1,0,0,0-.28-.46C5.89,4.4,4.58,2.81,3.94,3s-.81.46-.9.12.43-.55.87-.53c.75,0,1.35,1.1,1.3,1C4.93,3,4.48,2.08,3.48,2.07,2.29,2.06,2,3.25,2.35,4.61c.53,2,1.8,2.61,2.76,2.53.49,0,.82-.54,1-1A3.64,3.64,0,0,1,6.94,7a3.24,3.24,0,0,1,.47,1.62,5.16,5.16,0,0,0,.39,2A3,3,0,0,0,9.38,12c.64.27,1.29.36,1.85.56A2.31,2.31,0,0,1,12,13a4.36,4.36,0,0,1,.6.68,7,7,0,0,0,1.26,1.51,4.7,4.7,0,0,0,1.84.8h0a.24.24,0,0,0,.29-.2A.25.25,0,0,0,15.78,15.47Z" style="fill:#f57676"/></g></svg>