<svg id="Chromosome_2a_Markers" data-name="Chromosome 2a Markers" xmlns="http://www.w3.org/2000/svg" viewBox="0 0 63 168"><title>chromosome 2a inspect markers</title><path id="_2a_Bloc1s6_leader" data-name="2a Bloc1s6 leader" d="M62,98.22a.76.76,0,0,1-.57-.26L34.65,66.26a.74.74,0,0,1,.09-1.05.75.75,0,0,1,1.06.09L62.62,97a.77.77,0,0,1-.09,1.06A.75.75,0,0,1,62,98.22Z" style="fill:#6d2b00"/><path id="_2a_Bloc1s6_marker" data-name="2a Bloc1s6 marker" d="M9.94,60.78l22.38,6.15c.37-1.28.73-2.56,1.07-3.85L11,56.93C10.67,58.24,10.31,59.52,9.94,60.78Z" style="opacity:0.5"/><path id="_2a_Agouti_leader" data-name="2a Agouti leader" d="M39.33,46.65a.76.76,0,0,1-.64-.37.74.74,0,0,1,.26-1L61.66,31.81a.75.75,0,1,1,.76,1.29L39.71,46.54A.76.76,0,0,1,39.33,46.65Z" style="fill:#6d2b00"/><path id="_2a_Agouti_marker" data-name="2a Agouti marker" d="M14.07,40.54c-.16,1.36-.33,2.69-.53,4l23,3.07c.2-1.3.38-2.62.54-4Z" style="opacity:0.5"/></svg>