<svg id="Chromosome_8a_Inspect" data-name="Chromosome 8a Inspect" xmlns="http://www.w3.org/2000/svg" viewBox="0 0 63 168"><title>chromosome 8a inspect</title><path id="_8a" data-name="8a" d="M25.1,143.85a11.32,11.32,0,0,1-9.18-4.66l-1.21-1.63C8.87,129.7,1.59,119.91.11,94c-.68-12,1.94-20.91,4.47-29.58C7.07,56,9.42,47.91,8.6,36.31a11.37,11.37,0,0,1,22.68-1.6c1.1,15.66-2.08,26.53-4.88,36.13-2.18,7.44-4.06,13.87-3.6,21.91C23.89,111.82,28.09,117.46,33,124l1.32,1.78a11.37,11.37,0,0,1-9.17,18.07Z"/></svg>