<?xml version="1.0" encoding="utf-8"?>
<svg id="Chromatin_Paths" data-name="Chromatin Paths" viewBox="0 0 394 182" xmlns="http://www.w3.org/2000/svg">
  <title>Chromatin paths</title>
  <path class="id-2a" d="M 259.049 45.585 C 266.149 35.355 258.609 21.515 247.229 24.705 C 240.729 26.705 239.229 36.505 244.829 39.925 C 251.199 43.675 258.059 39.595 265.229 39.265 C 269.919 39.055 274.179 42.025 275.049 44.575 C 275.809 46.745 275.369 49.815 273.689 51.315 C 269.639 54.925 261.219 46.905 255.319 50.685 C 251.989 52.805 251.639 57.285 251.599 57.885 C 251.089 64.365 257.359 68.885 258.679 69.765 C 267.679 75.765 279.019 70.495 281.679 69.245 C 284.939 67.715 288.929 65.855 289.369 62.455 C 289.929 58.115 284.319 54.075 281.239 53.075 C 280.321 52.755 279.341 52.655 278.379 52.785 C 276.982 53.055 275.717 53.788 274.789 54.865 C 273.214 56.528 272.421 58.783 272.609 61.065 C 273.409 66.415 282.139 65.925 285.829 73.515 C 286.329 74.515 287.769 77.625 286.439 80.215 C 284.799 83.405 280.149 83.565 279.349 83.575 C 275.349 83.635 270.679 81.245 270.719 78.975 C 270.779 75.975 278.929 72.315 282.069 74.735 C 285.209 77.155 283.719 85.605 279.149 88.895 C 277.771 89.834 276.185 90.421 274.529 90.605 C 269.529 91.275 267.239 88.075 264.529 89.455 C 262.709 90.654 261.773 92.818 262.149 94.965 C 262.629 97.765 265.569 99.125 266.829 99.705 C 271.199 101.705 275.689 100.445 277.599 99.875 C 285.269 97.595 286.599 92.815 289.879 93.645 C 293.509 94.565 296.769 101.645 294.079 106.245 C 292.999 108.095 290.559 110.245 288.079 109.945 C 284.439 109.435 284.019 103.945 279.979 103.345 C 278.263 103.082 276.539 103.771 275.479 105.145 C 274.334 107.16 274.75 109.701 276.479 111.245 C 279.019 113.195 282.889 110.005 284.779 111.745 C 286.269 113.105 285.539 116.625 284.419 118.835 C 281.649 124.285 273.529 127.725 266.649 125.385 C 266.239 125.245 258.319 122.385 257.719 115.845 C 257.119 109.305 264.109 103.105 268.079 103.965 C 269.615 104.389 270.89 105.463 271.569 106.905 C 272.138 108.14 272.216 109.545 271.789 110.835 C 271.109 112.605 269.569 113.115 268.569 113.945 C 264.179 117.585 269.479 127.945 266.439 129.945 C 263.929 131.605 259.089 125.395 253.029 127.385 C 251.489 127.885 251.649 128.335 250.209 128.735 C 245.529 130.015 239.279 126.565 236.559 121.435 C 233.989 116.595 235.339 111.705 235.809 110.015 C 235.999 109.335 238.599 100.405 245.639 98.955 C 246.954 98.566 248.361 98.625 249.639 99.125 C 254.959 101.625 255.899 115.125 250.099 119.315 C 248.221 120.678 245.791 121.023 243.609 120.235 C 240.239 118.875 237.699 114.015 239.759 110.725 C 241.519 107.925 245.869 107.435 248.349 108.955 C 248.649 109.135 250.289 110.135 250.349 111.735 C 250.349 113.525 248.349 115.335 246.699 115.005 C 245.049 114.675 244.389 112.125 244.409 110.645 C 244.409 107.425 247.409 105.235 247.899 104.915 C 252.209 101.855 256.339 104.455 259.019 101.425 C 260.639 99.615 259.419 98.425 260.909 97.025 C 263.969 94.245 269.389 99.185 275.299 96.495 C 276.949 95.745 276.429 95.405 279.889 93.315 C 283.659 91.045 284.889 91.055 286.689 89.605 C 288.891 87.669 290.387 85.055 290.939 82.175 C 292.249 76.365 289.119 71.475 285.319 65.565 C 281.319 59.355 277.229 52.925 272.499 53.565 C 269.499 53.975 266.599 57.125 266.449 59.995 C 266.349 62.155 267.679 62.635 268.579 66.385 C 269.119 68.605 269.859 71.655 268.359 74.265 C 266.859 76.875 264.219 77.605 262.009 78.265 C 260.589 78.705 253.319 79.645 249.569 75.675 C 248.989 75.065 246.889 72.425 247.359 69.325 C 247.979 65.325 252.719 62.325 256.449 62.535 C 262.449 62.915 267.449 71.625 266.289 78.915 C 264.869 88.185 253.749 94.055 249.369 91.915 C 247.559 91.035 246.929 88.815 245.059 88.855 C 242.889 88.855 242.579 92.105 240.379 92.675 C 236.379 93.675 232.829 84.545 228.649 85.315 C 226.149 85.775 224.879 89.525 224.559 91.475 C 223.709 96.625 227.219 102.635 231.319 102.985 C 233.979 103.205 237.079 101.065 237.159 99.105 C 237.159 97.725 235.729 97.395 234.809 95.455 C 233.571 92.312 234.273 88.736 236.609 86.295 C 239.429 83.535 244.239 83.825 247.379 85.155 C 254.989 88.375 252.379 97.525 260.459 104.365 C 266.059 109.115 275.369 111.515 281.289 107.695 C 284.689 105.505 287.609 100.855 286.839 96.395 C 286.459 94.245 285.229 92.165 282.719 90.055 C 275.099 83.655 268.059 87.975 255.719 83.715 C 247.849 81.005 238.609 75.085 239.089 69.795 C 239.457 67.649 240.844 65.814 242.809 64.875 C 245.409 63.555 249.349 63.815 251.329 66.435 C 253.309 69.055 251.949 72.805 251.809 73.155 C 250.185 76.455 246.716 78.435 243.049 78.155 C 236.999 77.645 232.609 69.725 233.449 63.515 C 233.672 61.891 234.245 60.336 235.129 58.955 C 239.829 51.455 252.129 49.785 255.129 53.195 C 257.809 56.195 255.339 61.395 249.369 60.395 C 245.949 59.815 244.369 56.025 243.849 54.755 C 242.025 50.066 242.949 44.753 246.249 40.955 C 247.149 39.955 250.079 36.595 253.249 37.175 C 257.809 38.005 259.349 46.265 259.809 48.755 C 260.655 53.561 260.231 58.504 258.579 63.095" style="fill:none;stroke:#000;stroke-miterlimit:10;stroke-width:1.5px"/>
  <path id="X2_and_Y" data-name="X2 and Y" d="M 207.759 23.115 C 211.026 22.199 213.145 19.046 212.759 15.675 C 212.119 11.435 207.119 9.325 204.489 10.255 C 200.799 11.565 200.709 19.315 199.199 19.255 C 197.519 19.195 198.539 10.165 194.199 8.065 C 191.199 6.615 185.989 7.895 184.079 12.065 C 182.409 15.765 183.849 20.435 187.079 22.065 C 188.679 22.855 191.219 23.155 192.539 21.855 C 194.599 19.855 193.199 14.695 190.759 11.855 C 187.579 8.185 180.999 6.555 176.859 9.005 C 170.779 12.615 171.289 23.505 175.919 27.925 C 177.588 29.414 179.613 30.448 181.799 30.925 C 186.369 32.075 188.229 30.505 193.749 30.675 C 197.879 30.805 202.749 31.215 204.219 33.945 C 206.039 37.295 203.219 43.785 198.379 44.685 C 196.374 44.949 194.341 44.496 192.639 43.405 C 188.709 40.305 188.589 32.765 191.489 28.245 C 195.589 21.865 205.679 21.565 212.419 24.595 C 218.142 27.234 222.215 32.502 223.329 38.705 C 223.459 39.575 224.329 46.855 220.169 49.065 C 218.169 50.145 213.959 50.275 212.409 47.335 C 211.206 44.788 211.677 41.765 213.599 39.705 C 216.999 36.375 222.959 39.705 225.169 36.365 C 226.049 35.045 225.979 33.175 227.359 32.585 C 230.499 31.245 233.019 33.415 231.849 35.985 C 229.909 40.225 223.259 43.455 217.979 43.355 C 209.509 43.205 203.269 43.915 200.839 47.595 C 199.259 49.985 199.159 53.795 200.659 54.835 C 202.659 56.235 205.979 51.685 212.589 51.735 C 214.139 51.735 217.679 51.735 219.819 53.855 C 221.309 55.305 222.739 58.225 221.239 60.045 C 219.419 62.265 213.039 61.145 213.939 56.985 C 215.199 51.235 225.559 55.255 227.499 56.185 C 228.069 56.455 229.799 57.185 230.419 57.545 C 231.039 57.905 237.819 61.005 237.059 66.025 C 236.059 72.835 229.999 75.455 224.829 72.595 C 222.529 71.325 221.829 68.135 222.219 66.025 C 222.689 63.385 225.219 63.405 226.079 60.845 C 227.359 57.195 224.079 55.075 224.229 51.075 C 224.379 46.075 229.379 41.445 232.789 39.675 C 238.929 36.475 244.549 39.575 249.339 34.525 C 250.352 33.445 251.173 32.201 251.769 30.845 C 254.319 24.105 248.089 12.845 238.909 11.845 C 234.626 11.457 230.415 13.132 227.569 16.355 C 222.829 22.075 224.999 31.245 228.439 36.695 C 232.029 42.395 237.869 44.815 237.029 47.615 C 236.569 49.135 233.909 50.525 232.269 50.085 C 230.439 49.595 229.809 46.955 230.349 45.355 C 231.209 42.865 236.109 40.955 238.799 43.125 C 239.881 44.031 240.578 45.314 240.749 46.715 C 240.849 49.625 237.869 51.175 234.629 54.425 C 234.109 54.955 229.479 59.595 227.679 65.515 C 226.129 70.595 225.509 78.965 229.969 81.585 C 232.597 83.235 236.063 82.474 237.759 79.875 C 239.609 76.875 238.219 71.585 235.149 69.695 C 230.369 66.695 222.569 70.615 219.959 76.335 C 218.359 79.815 218.589 85.515 222.529 87.905 C 228.689 91.655 234.879 87.905 234.319 82.905 C 233.999 80.105 230.809 78.285 227.889 76.995 C 219.299 73.225 211.079 74.705 210.609 72.475 C 210.339 71.205 213.419 70.475 213.179 68.755 C 212.799 66.115 206.499 65.665 206.539 64.275 C 206.539 63.055 211.619 61.395 214.879 63.055 C 219.679 65.495 219.879 75.745 215.959 78.565 C 213.019 80.665 207.479 79.355 204.109 76.095 C 197.659 69.865 202.449 60.265 196.489 55.995 C 193.069 53.545 187.199 53.215 183.909 55.925 C 181.909 57.595 179.909 61.255 181.119 64.655 C 182.919 69.715 190.719 69.485 193.119 66.885 C 197.009 62.645 193.319 50.065 186.439 47.235 C 183.869 46.175 180.579 46.005 178.379 43.585 C 177.295 41.713 177.638 39.343 179.209 37.855 C 182.609 34.855 202.439 37.335 207.099 49.675 C 208.088 52.227 208.256 55.024 207.579 57.675 C 206.129 62.415 200.519 67.165 195.579 66.055 C 190.639 64.945 188.899 58.495 188.699 57.705 C 187.369 52.575 190.019 47.985 190.509 47.175 C 192.509 43.805 194.609 44.465 197.009 41.505 C 201.939 35.415 198.119 28.005 201.529 26.345 C 204.739 24.795 208.679 31.245 212.899 29.515 C 215.449 28.465 215.319 25.345 218.079 22.805 C 223.009 18.245 232.999 19.225 234.589 22.665 C 235.419 24.455 234.059 27.665 232.189 29.095 C 229.189 31.435 226.119 28.625 220.409 30.245 C 215.719 31.565 215.169 34.125 212.829 33.785 C 207.459 33.025 201.759 19.725 206.639 13.375 C 208.389 11.105 212.029 9.065 215.429 9.795 C 215.809 9.885 218.999 10.715 220.299 13.035 C 221.299 14.885 220.479 16.535 220.749 18.525 C 221.299 22.525 225.619 26.245 230.209 27.185 C 235.069 28.185 240.509 25.865 241.749 22.185 C 242.254 20.834 242.218 19.34 241.649 18.015 C 240.299 15.705 236.969 15.215 234.419 16.065 C 231.259 17.125 228.859 20.875 229.689 22.775 C 231.239 26.325 243.409 21.895 245.579 26.115 C 246.579 28.115 244.999 31.725 242.859 33.245 C 242.559 33.455 239.679 35.105 237.999 33.795 C 236.319 32.485 236.519 28.015 240.999 28.165 C 242.999 28.235 244.469 30.395 244.609 30.705 C 245.529 32.635 244.609 35.595 243.049 37.555" style="fill:none;stroke:#000;stroke-miterlimit:10;stroke-width:1.5px"/>
  <path id="id-8a" data-name="8a" d="M 243.149 139.405 C 247.699 133.275 248.969 126.115 246.149 121.085 C 245.629 120.175 243.439 116.085 239.039 115.615 C 236.259 115.345 227.709 117.065 229.099 124.615 C 229.729 128.065 233.519 130.805 236.889 130.095 C 241.189 129.185 245.779 122.225 231.889 113.095 C 229.189 111.305 222.689 107.975 217.729 110.495 C 211.729 113.495 213.799 122.375 207.529 125.085 C 204.638 126.336 201.294 125.911 198.809 123.975 C 193.719 119.415 196.809 105.285 204.809 101.285 C 205.369 101.005 209.689 98.945 213.809 100.925 C 218.149 102.985 220.199 108.415 219.359 112.325 C 219.129 113.425 218.899 113.325 218.639 114.445 C 217.519 119.305 221.499 121.895 221.169 125.185 C 220.759 129.375 213.489 133.045 207.169 133.585 C 198.689 134.305 196.819 129.035 190.029 129.695 C 179.769 130.695 169.639 144.165 172.379 152.215 C 173.729 156.155 178.229 159.055 180.169 158.135 C 182.779 156.885 179.639 149.195 184.389 143.405 C 186.299 141.075 187.809 141.095 188.129 141.115 C 192.999 141.355 194.129 148.815 187.399 148.725 C 184.589 148.725 183.819 146.045 180.229 143.885 C 174.369 140.365 166.889 143.185 165.439 143.765 C 159.639 146.105 156.359 152.485 157.239 155.115 C 158.529 158.975 163.869 160.065 164.479 160.185 C 173.209 161.855 177.029 152.185 184.479 153.495 C 191.159 154.645 196.999 163.855 195.029 169.005 C 194.151 171.038 192.35 172.526 190.189 173.005 C 186.861 173.615 183.51 172.065 181.819 169.135 C 178.869 163.575 186.099 156.215 186.529 155.795 C 187.459 154.875 191.599 150.795 197.269 150.795 C 202.749 150.865 203.429 154.795 210.009 155.165 C 214.069 155.405 215.639 154.025 218.739 155.425 C 219.399 155.735 222.879 157.305 223.369 160.685 C 223.639 162.565 223.079 165.575 220.609 166.565 C 215.529 168.565 212.229 162.365 216.149 159.355 C 219.029 157.145 222.959 163.565 228.589 162.825 C 232.789 162.275 237.289 158.045 237.369 153.145 C 237.469 147.995 232.589 144.845 231.909 144.425 C 229.049 142.645 224.639 141.615 221.159 143.425 C 217.419 145.345 217.679 149.025 212.499 159.915 C 208.149 169.045 206.269 170.015 204.869 170.215 C 201.409 170.458 198.275 168.181 197.439 164.815 C 196.879 162.095 198.189 158.815 200.439 157.965 C 203.599 156.745 206.859 161.155 208.339 160.095 C 209.819 159.035 208.759 152.315 204.599 147.775 C 201.049 143.895 197.219 143.625 196.719 140.435 C 196.389 138.335 197.789 136.505 198.719 135.335 C 201.829 131.265 206.149 130.435 209.949 128.975 C 215.958 126.415 221.262 122.442 225.409 117.395 C 229.249 112.535 234.139 103.095 230.549 96.605 C 228.879 93.705 225.149 90.595 222.289 91.705 C 219.429 92.815 217.949 97.415 219.859 100.645 C 221.099 102.735 223.859 104.245 225.859 103.555 C 229.319 102.395 230.509 95.095 228.619 89.735 C 228.369 89.015 225.619 81.435 219.029 80.865 C 212.299 80.275 208.199 87.655 207.759 88.465 C 203.989 95.465 207.049 103.775 210.389 106.775 C 212.459 108.635 215.849 106.775 216.389 104.425 C 217.005 101.976 216.487 99.38 214.979 97.355 C 212.299 94.125 207.109 93.865 203.589 95.865 C 203.139 96.115 199.379 98.325 199.189 101.865 C 198.999 105.405 202.419 106.405 204.189 111.865 C 204.771 113.848 205.047 115.909 205.009 117.975 C 204.789 126.035 196.859 136.245 187.009 136.835 C 179.079 137.305 167.109 128.945 172.259 125.475 C 173.919 124.365 175.859 127.415 179.479 127.965 C 182.042 128.354 184.647 127.601 186.609 125.905 C 189.669 123.095 190.369 117.455 188.239 115.855 C 184.969 113.395 181.239 117.965 183.509 120.235 C 185.779 122.505 190.279 117.415 197.759 117.235 C 201.539 117.198 205.259 118.19 208.519 120.105 C 212.998 122.642 216.556 126.536 218.679 131.225 C 221.399 136.915 223.839 147.355 219.419 150.315 C 216.689 152.145 211.779 150.815 208.919 148.025 C 208.339 147.465 205.179 144.245 206.019 140.655 C 207.179 135.655 215.109 134.565 216.019 134.455 C 219.439 134.045 220.789 135.035 224.479 135.625 C 232.049 136.825 233.479 133.805 244.099 133.295 C 250.189 133.005 255.249 132.855 259.039 136.225 C 263.829 140.485 263.199 147.725 260.649 149.885 C 256.859 153.095 251.349 149.955 248.649 145.635 C 247.309 143.515 242.389 137.925 237.229 137.475 C 232.069 137.025 225.509 141.685 224.729 148.115 C 224.079 153.405 228.779 161.045 235.409 161.175 C 245.159 161.355 248.319 154.495 249.959 147.955 C 255.469 125.895 254.219 119.675 258.889 116.335 C 261.346 114.48 264.56 113.956 267.479 114.935 C 273.189 117.265 275.479 128.085 271.479 131.935 C 269.349 133.935 265.059 134.385 262.989 132.325 C 260.659 129.995 261.629 124.955 264.549 122.475 C 267.819 119.951 272.455 120.246 275.379 123.165 C 278.559 126.775 276.089 133.605 272.549 137.005 C 269.549 139.885 265.439 140.305 257.339 141.005 C 248.059 141.815 245.849 140.535 240.469 142.665 C 238.199 143.555 233.099 145.665 232.179 149.875 C 231.179 154.635 237.179 158.645 241.279 156.875 C 244.279 155.575 245.789 151.405 244.129 148.825 C 242.469 146.245 238.679 147.015 237.249 144.595 C 236.349 143.065 236.109 140.155 240.079 134.065" style="fill:none;stroke:#000;stroke-miterlimit:10;stroke-width:1.5px"/>
  <path id="id-2b" data-name="2b" d="M 139.149 74.785 C 141.443 73.804 143.654 72.637 145.759 71.295 C 147.297 70.437 148.705 69.362 149.939 68.105 C 151.739 66.105 154.239 62.105 152.939 60.195 C 151.409 57.835 144.089 58.295 142.079 61.875 C 140.069 65.455 143.989 70.775 147.389 73.245 C 150.789 75.715 155.989 76.995 160.149 75.015 C 165.719 72.365 165.149 65.015 169.249 64.545 C 171.509 64.305 173.749 66.265 174.829 67.945 C 175.089 68.345 176.829 71.085 175.759 73.735 C 174.419 77.225 169.449 77.735 167.109 78.065 C 164.599 78.375 160.689 78.865 157.889 76.245 C 154.119 72.715 155.669 66.675 155.889 66.135 C 157.167 62.703 159.657 59.858 162.889 58.135 C 169.429 54.425 178.269 54.655 179.319 57.345 C 180.369 60.035 174.479 64.185 175.249 65.155 C 176.199 66.355 184.639 58.955 187.149 60.865 C 190.019 63.045 186.149 78.175 176.559 82.455 C 171.159 84.865 166.069 83.005 165.109 85.255 C 163.699 88.545 167.619 91.965 171.199 91.965 C 174.999 91.965 176.459 90.145 181.489 89.055 C 187.009 87.845 194.429 89.055 199.269 93.995 C 202.18 97.08 203.914 101.091 204.169 105.325 C 204.239 106.525 204.619 114.145 198.659 119.755 C 197.839 120.535 191.599 126.225 183.659 124.305 C 178.969 123.155 173.379 119.225 173.319 114.655 C 173.239 108.465 180.319 104.575 186.509 104.325 C 195.219 103.975 198.259 107.325 205.019 104.795 C 212.139 102.105 214.879 93.505 215.149 92.685 C 215.829 90.799 216.138 88.799 216.059 86.795 C 215.909 83.585 214.519 76.955 209.959 75.725 C 205.039 74.385 198.169 79.805 198.709 85.205 C 199.029 88.415 202.109 92.055 205.909 91.975 C 209.329 91.905 212.609 88.825 212.279 86.645 C 211.949 84.465 208.559 84.885 204.739 81.735 C 200.089 77.905 197.319 70.985 199.399 68.165 C 200.605 66.686 202.644 66.185 204.399 66.935 C 205.779 67.615 206.779 69.415 206.309 70.715 C 205.709 72.405 203.069 72.645 202.309 72.715 C 199.969 72.925 197.979 72.125 194.409 70.015 C 187.479 65.925 186.339 63.875 183.939 64.335 C 181.129 64.875 179.749 68.235 179.539 68.735 C 178.219 72.443 179.198 76.581 182.039 79.305 C 184.149 81.235 186.539 81.305 186.759 82.855 C 186.939 84.195 185.399 85.355 184.759 85.945 C 179.669 90.715 186.869 102.165 183.649 110.945 C 180.899 118.455 170.549 123.765 163.339 121.495 C 159.669 120.345 154.929 116.645 155.389 112.055 C 155.819 107.765 160.689 103.735 164.839 104.745 C 167.349 105.365 170.169 107.975 169.749 110.915 C 169.276 113.596 166.92 115.531 164.199 115.475 C 162.977 115.213 161.87 114.568 161.039 113.635 C 159.529 112.295 159.389 111.495 158.199 110.005 C 155.549 106.685 152.949 106.625 153.029 105.065 C 153.089 103.945 154.539 102.595 155.819 102.015 C 156.539 101.695 157.049 101.665 157.439 101.115 C 157.899 100.488 157.93 99.645 157.519 98.985 C 156.819 98.105 155.219 98.605 154.959 98.695 C 153.869 99.035 152.439 100.085 152.459 101.515 C 152.479 102.945 154.049 104.205 155.369 104.515 C 157.729 104.995 158.959 102.575 160.789 103.105 C 162.619 103.635 163.789 106.485 163.149 108.425 C 162.149 111.275 156.949 112.295 153.369 111.565 C 145.149 109.905 138.399 97.705 141.639 89.125 C 142.962 85.929 145.369 83.301 148.439 81.705 C 149.209 81.335 154.209 78.925 156.889 81.065 C 159.889 83.435 158.889 90.125 155.659 93.815 C 154.11 95.451 152.119 96.6 149.929 97.125 C 141.796 100.048 133.087 94.528 132.259 85.925 C 131.939 81.175 133.169 74.925 136.439 74.065 C 139.189 73.295 140.439 77.065 144.359 77.435 C 150.789 78.025 152.939 67.675 159.769 67.355 C 165.909 67.065 170.769 75.005 171.509 76.185 C 173.452 79.348 174.471 82.993 174.449 86.705 C 174.449 89.995 174.379 95.575 170.129 98.195 C 166.499 100.435 161.209 99.685 157.929 96.475 C 154.859 93.475 153.059 87.755 156.099 84.095 C 159.139 80.435 165.309 80.875 168.099 83.245 C 169.899 84.775 169.469 86.475 171.619 87.795 C 174.279 89.435 176.339 87.705 178.009 89.235 C 180.009 91.035 177.869 94.105 179.929 96.505 C 181.989 98.905 185.849 98.255 186.249 98.185 C 189.959 97.595 192.019 94.525 192.889 93.185 C 195.479 89.325 196.779 83.065 193.689 78.105 C 191.895 75.439 189.217 73.491 186.129 72.605 C 179.479 70.365 169.919 71.775 165.319 78.605 C 161.799 83.875 162.879 89.795 163.139 91.215 C 163.989 95.384 166.134 99.178 169.269 102.055 C 174.659 107.465 185.269 113.135 191.869 108.955 C 196.369 106.105 198.739 98.885 196.979 96.955 C 196.23 96.304 195.208 96.064 194.249 96.315 C 192.809 96.663 191.724 97.85 191.509 99.315 C 191.389 101.315 194.009 101.945 196.789 105.465 C 198.059 107.065 200.789 110.525 199.659 112.795 C 198.809 114.475 196.049 115.095 193.989 114.555 C 192.507 114.108 191.238 113.138 190.419 111.825 C 188.419 108.965 189.929 107.105 188.519 104.605 C 186.919 101.765 182.759 100.145 179.019 100.805 C 176.396 101.319 174.082 102.846 172.579 105.055" style="fill:none;stroke:#000;stroke-miterlimit:10;stroke-width:1.5px"/>
  <path id="X1" d="M 145.399 106.425 C 147.229 104.915 149.399 102.995 149.059 98.425 C 148.819 95.425 146.859 91.425 143.629 91.165 C 141.591 91.156 139.696 92.21 138.629 93.945 C 137.318 95.79 137.144 98.212 138.179 100.225 C 140.179 103.425 146.549 103.225 149.979 100.315 C 151.935 98.468 152.977 95.852 152.829 93.165 C 152.419 87.765 146.829 85.015 145.629 84.455 C 140.989 82.195 133.539 81.735 129.019 86.595 C 126.343 89.541 125.23 93.585 126.019 97.485 C 126.809 101.095 129.639 103.805 131.139 105.195 C 137.209 110.785 142.699 108.865 143.889 112.125 C 145.079 115.385 141.009 120.705 136.049 123.495 C 125.359 129.495 114.499 120.785 108.479 127.075 C 106.113 129.665 105.111 133.221 105.779 136.665 C 105.969 137.545 106.779 141.205 109.049 141.835 C 113.119 142.965 116.049 132.835 125.969 129.425 C 127.879 128.755 132.129 127.365 135.719 129.425 C 137.455 130.512 138.786 132.139 139.509 134.055 C 140.949 137.425 141.319 143.055 137.899 146.175 C 134.479 149.295 128.479 149.175 127.389 147.255 C 126.579 145.875 128.179 142.715 130.319 142.075 C 131.614 141.674 133.025 142.002 134.009 142.935 C 136.389 145.785 129.859 151.935 131.399 159.795 C 131.574 161.33 132.346 162.735 133.549 163.705 C 134.99 164.644 136.743 164.978 138.429 164.635 C 142.749 163.825 143.739 160.545 148.369 156.735 C 150.129 155.285 155.769 150.655 162.579 151.075 C 163.869 151.155 169.109 151.475 170.579 154.975 C 171.302 157.149 170.835 159.542 169.349 161.285 C 169.139 161.555 166.559 164.675 163.149 163.835 C 160.899 163.285 158.789 161.125 159.039 159.155 C 159.289 157.185 162.219 155.535 164.519 155.215 C 173.129 153.995 178.789 168.775 185.719 166.985 C 187.579 166.505 189.579 164.815 189.629 163.075 C 189.679 161.335 187.779 159.605 185.909 159.175 C 182.709 158.415 180.269 161.625 176.579 164.125 C 170.309 168.375 160.009 170.895 153.799 166.895 C 147.589 162.895 147.619 153.845 147.629 153.075 C 147.749 142.555 157.899 133.075 166.509 132.915 C 167.279 132.915 173.109 133.095 175.629 137.695 C 177.859 141.775 176.139 147.795 173.149 148.995 C 170.629 149.995 169.149 146.805 163.839 146.145 C 158.739 145.495 157.839 148.195 152.839 147.935 C 147.839 147.675 143.839 144.615 139.719 141.385 C 133.539 136.515 133.179 133.565 129.879 133.445 C 125.829 133.295 122.029 137.605 120.479 141.265 C 119.879 142.685 118.869 145.065 119.619 147.555 C 121.239 152.885 129.799 155.905 135.909 153.745 C 143.719 150.975 145.159 141.335 145.349 139.845 C 145.726 136.119 145.09 132.36 143.509 128.965 C 141.624 124.652 138.729 120.855 135.069 117.895 C 132.239 115.375 123.589 107.895 111.909 107.835 C 109.139 107.835 103.779 107.835 102.189 110.975 C 101.31 112.993 101.768 115.344 103.339 116.885 C 106.219 119.485 112.969 117.585 116.099 113.355 C 119.099 109.355 118.399 103.745 116.099 100.215 C 112.239 94.285 103.309 93.335 97.099 96.215 C 96.639 96.435 88.099 100.535 88.099 108.705 C 88.099 116.335 95.579 120.465 96.039 120.705 C 99.039 122.285 101.599 123.795 103.249 122.795 C 104.899 121.795 108.059 119.865 109.839 121.975 C 111.619 124.085 112.839 122.465 113.839 121.135 C 115.037 119.576 116.376 118.13 117.839 116.815 C 119.379 115.425 138.489 102.575 148.489 107.055 C 151.639 108.465 154.489 112.055 153.869 114.425 C 153.429 116.065 151.679 117.815 149.709 117.305 C 148.051 116.763 146.847 115.323 146.609 113.595 C 146.449 110.525 150.529 107.455 154.429 106.995 C 158.879 106.475 163.039 109.695 165.019 112.595 C 168.031 117.388 167.649 123.57 164.069 127.955 C 159.229 133.855 149.549 133.955 146.669 130.285 C 145.907 129.16 145.554 127.809 145.669 126.455 C 146.199 122.075 152.879 119.615 156.869 118.915 C 162.949 117.855 169.499 119.635 172.999 123.515 C 174.255 125.003 175.13 126.774 175.549 128.675 C 175.925 130.362 175.866 132.117 175.379 133.775 C 174.946 135.635 173.984 137.33 172.609 138.655 C 171.51 139.742 169.988 140.291 168.449 140.155 C 167.183 139.809 166.084 139.022 165.349 137.935 C 162.889 134.315 169.449 129.255 167.459 126.125 C 166.029 123.885 160.859 123.595 157.699 125.015 C 153.109 127.085 150.889 132.315 151.319 136.605 C 151.319 137.025 152.319 142.865 155.979 143.805 C 158.287 144.229 160.619 143.198 161.859 141.205 C 164.439 136.575 157.319 127.685 153.039 123.625 C 148.759 119.565 142.409 113.965 133.639 114.375 C 128.704 114.63 123.991 116.503 120.229 119.705 C 113.089 126.305 109.709 138.955 113.799 143.045 C 115.979 145.225 121.119 145.895 123.939 143.815 C 124.149 143.665 126.429 141.615 126.499 139.275 C 126.619 135.035 119.579 130.425 113.299 128.965 C 103.569 126.695 97.989 132.965 93.399 129.235 C 90.669 126.995 90.199 122.465 90.129 120.535 C 89.799 112.345 96.479 103.095 104.129 101.795 C 112.769 100.335 117.189 110.155 125.919 107.395 C 126.829 107.105 131.839 105.185 133.349 101.075 C 134.478 97.482 133.492 93.558 130.799 90.925 C 126.159 86.655 116.539 88.375 112.889 93.865 C 111.238 96.592 110.648 99.831 111.229 102.965" style="fill:none;stroke:#000;stroke-miterlimit:10;stroke-width:1.5px;fill-rule:evenodd"/>
  <path id="id-8b" data-name="8b" d="M 168.789 33.525 C 171.023 35.873 172.896 38.538 174.349 41.435 C 175.349 44.035 177.779 50.275 174.659 55.435 C 173.147 57.718 171.083 59.582 168.659 60.855 C 163.909 63.035 157.659 62.175 156.559 59.375 C 155.559 56.895 158.559 51.435 162.719 49.555 C 171.289 45.715 179.909 55.755 184.669 52.025 C 187.549 49.765 188.169 44.095 185.669 40.275 C 183.786 37.621 180.926 35.823 177.719 35.275 C 168.609 33.945 164.909 46.395 149.719 50.755 C 148.409 51.135 139.139 54.025 137.129 50.755 C 135.799 48.605 137.339 43.035 140.399 41.295 C 140.989 40.955 143.329 40.245 144.399 40.905 C 145.469 41.565 146.039 44.175 145.069 44.985 C 143.915 45.592 142.528 45.554 141.409 44.885 C 139.779 43.545 139.719 40.025 140.739 37.945 C 142.519 34.345 147.459 32.485 151.399 33.375 C 153.729 33.895 156.029 35.925 159.739 39.375 C 164.179 43.515 164.969 44.375 166.879 45.455 C 171.359 48.015 178.359 47.565 183.209 42.605 C 187.389 38.325 188.959 30.875 186.059 25.125 C 181.809 16.705 170.489 16.805 169.059 16.925 C 167.999 17.015 159.969 17.925 158.399 23.395 C 157.659 25.995 157.769 29.705 160.019 31.735 C 161.622 33.068 163.634 33.813 165.719 33.845 C 171.039 33.845 174.659 29.145 175.359 28.075 C 177.729 24.425 179.699 17.385 176.239 12.635 C 174.554 10.535 172.187 9.092 169.549 8.555 C 162.549 6.835 154.829 11.125 151.609 16.715 C 150.609 18.375 148.899 22.805 151.049 25.965 C 152.819 28.575 157.259 29.395 160.129 27.965 C 164.309 25.835 165.339 19.285 163.189 16.395 C 159.399 11.325 144.999 16.505 144.119 16.885 C 137.269 19.835 128.259 26.885 129.519 31.275 C 130.919 36.145 144.249 32.685 149.849 40.735 C 154.259 47.075 151.239 55.965 151.079 56.395 C 150.249 58.745 148.699 63.985 144.569 65.265 C 142.19 65.833 139.687 65.546 137.499 64.455 C 131.699 61.965 130.729 57.455 125.679 53.935 C 123.399 52.315 118.479 49.085 112.739 50.235 C 106.559 51.475 99.889 58.235 101.229 64.525 C 102.299 69.525 109.029 74.055 112.809 72.685 C 112.949 72.635 115.299 71.685 115.899 69.935 C 116.412 68.261 115.996 66.441 114.809 65.155 C 112.259 62.465 106.249 63.155 102.919 63.885 C 96.919 65.245 88.559 67.455 86.069 75.045 C 84.759 79.045 84.409 84.805 87.689 88.045 C 89.689 90.045 92.259 90.825 95.139 91.245 C 104.479 92.615 108.389 88.185 113.369 89.805 C 118.659 91.515 121.079 95.175 120.619 98.065 C 120.089 101.405 115.199 106.835 107.769 105.355 C 103.669 104.535 101.879 101.065 100.599 97.645 C 97.959 90.645 105.419 80.075 113.509 77.805 C 117.019 76.805 118.179 78.655 122.379 77.275 C 128.729 75.185 129.989 70.965 134.719 70.385 C 138.299 69.945 142.889 71.385 144.469 75.515 C 145.719 78.815 144.199 83.325 140.779 85.515 C 138.003 87.047 134.612 86.94 131.939 85.235 C 128.239 82.895 129.069 78.235 129.019 75.805 C 129.028 71.202 130.879 66.795 134.159 63.565 C 141.929 55.085 157.219 53.565 161.429 59.305 C 162.759 61.125 162.739 64.595 161.849 67.045 C 160.849 69.725 158.559 72.585 155.899 72.355 C 154.569 72.245 152.719 71.525 150.559 68.095 C 146.729 62.095 147.669 58.615 145.419 53.855 C 144.329 51.555 140.849 44.855 134.419 42.415 C 127.989 39.975 120.819 42.655 117.039 46.415 C 115.771 47.881 115.097 49.768 115.149 51.705 C 115.634 54.344 117.851 56.314 120.529 56.485 C 121.419 56.565 122.609 56.025 123.099 56.275 C 125.199 57.335 122.849 62.175 124.719 63.455 C 126.369 64.585 130.119 63.305 132.069 60.925 C 132.931 59.758 133.63 58.48 134.149 57.125 C 136.329 50.535 130.439 45.695 132.039 40.125 C 133.759 34.125 141.839 35.445 143.859 28.125 C 144.149 27.055 144.939 23.125 143.399 20.695 C 140.229 15.695 128.029 15.455 120.819 21.505 C 114.219 27.045 110.689 38.375 114.819 43.325 C 117.069 46.055 122.339 48.455 124.819 46.625 C 126.199 45.361 127.155 43.703 127.559 41.875 C 127.759 38.085 124.119 34.315 120.949 33.575 C 114.469 32.065 102.849 44.025 105.499 52.115 C 106.555 54.686 108.195 56.976 110.289 58.805 C 113.519 61.595 115.819 61.025 119.609 64.115 C 121.669 65.618 123.443 67.477 124.849 69.605 C 127.179 73.605 127.979 79.475 124.959 83.285 C 123.956 84.412 122.716 85.304 121.329 85.895 C 117.709 87.515 114.189 86.385 112.149 85.535 C 108.709 84.105 107.799 81.595 104.659 79.535 C 102.889 78.385 96.409 74.865 91.819 76.825 C 86.129 79.265 82.879 89.125 88.369 96.035 C 88.589 96.325 92.229 100.715 97.899 100.715 C 103.319 100.715 107.299 97.815 107.679 93.575 C 108.299 86.835 100.099 85.325 94.879 73.525 C 93.399 70.195 89.969 62.265 93.719 55.965 C 96.859 50.685 104.979 47.085 109.969 50.025 C 115.969 53.565 113.229 64.635 112.819 66.555 C 112.039 70.175 110.819 75.115 107.609 75.805 C 106.128 75.845 104.743 75.079 103.989 73.805 C 103.577 72.466 103.896 71.01 104.829 69.965" style="fill:none;stroke:#000;stroke-miterlimit:10;stroke-width:1.5px"/>
  <path d="M 116.434 61.551 C 118.717 59.954 122.102 61.659 122.089 62.108 C 122.075 62.557 116.324 61.284 116.191 61.749 C 116.059 62.214 123.067 62.768 123.139 63.287 C 123.211 63.806 115.129 62.359 115.074 62.816 C 115.018 63.274 123.763 64.383 123.766 64.844 C 123.769 65.304 114.365 63.617 114.381 64.147 C 114.398 64.676 123.802 65.881 123.835 66.35 C 123.869 66.819 114.189 64.825 114.175 65.346 C 114.161 65.868 123.573 67.186 123.648 67.611 C 123.724 68.036 114.008 65.933 113.992 66.369 C 113.976 66.804 123.439 68.458 123.488 69.011 C 123.538 69.563 113.88 67.161 113.838 67.616 C 113.797 68.071 123.258 70.086 123.237 70.421 C 123.215 70.757 113.682 68.259 113.646 68.777 C 113.61 69.296 122.934 71.423 122.96 71.743 C 122.986 72.062 113.43 69.331 113.374 69.86 C 113.319 70.39 122.697 72.795 122.664 73.183 C 122.631 73.571 113.271 69.995 113.088 70.982 C 112.982 71.55 122.301 74.133 122.249 74.46 C 122.198 74.787 112.866 71.58 112.791 72.048 C 112.716 72.516 121.905 75.506 121.876 75.764 C 121.847 76.022 112.6 72.402 112.422 73.006 C 112.244 73.609 121.425 76.738 121.359 77.031 C 121.271 77.502 112.08 73.692 111.938 74.296 C 111.796 74.899 120.966 77.972 120.87 78.293 C 120.774 78.615 111.728 74.697 111.567 75.203 C 111.406 75.71 120.446 79.19 120.347 79.569 C 120.248 79.949 111.293 75.754 111.151 76.213 C 111.01 76.673 119.912 80.41 119.785 80.831 C 119.658 81.252 110.821 76.847 110.632 77.323 C 110.444 77.799 119.331 81.683 119.227 82.106 C 119.122 82.53 110.21 77.931 110.091 78.357 C 109.973 78.784 118.842 82.873 118.682 83.271 C 118.522 83.67 109.683 79.071 109.51 79.63 C 109.338 80.189 118.206 84.156 118.093 84.43 C 117.981 84.704 109.149 80.363 108.933 80.772 C 108.647 81.339 117.693 85.185 117.572 85.526 C 117.386 86.052 108.641 81.348 108.444 81.854 C 108.248 82.36 117.109 86.372 117.022 86.663 C 116.934 86.953 108.094 82.57 107.866 83.105 C 107.639 83.639 116.645 87.615 116.536 87.83 C 116.345 88.22 107.563 83.732 107.391 84.256 C 107.219 84.779 116.153 88.863 116.069 89.059 C 115.92 89.405 107.073 85.139 106.915 85.587 C 106.758 86.036 115.701 89.945 115.625 90.147 C 115.461 90.568 106.587 86.379 106.456 86.858 C 106.326 87.337 115.593 90.873 115.432 91.344 C 115.272 91.815 106.185 87.724 106.08 88.256 C 105.974 88.788 115.211 92.28 115.154 92.543 C 115.049 93.003 105.879 89.037 105.74 89.583 C 105.601 90.129 115.073 93.236 114.985 93.527 C 114.838 93.995 105.524 90.547 105.422 90.985 C 105.32 91.422 114.921 94.123 114.836 94.5 C 114.75 94.877 105.312 91.755 105.227 92.204 C 105.141 92.653 114.846 95.074 114.778 95.426 C 114.692 95.947 105.163 93.174 105.08 93.709 C 104.996 94.244 114.658 96.033 114.648 96.352 C 114.638 96.67 105.039 94.502 104.962 94.885 C 104.885 95.267 114.645 96.928 114.579 97.33 C 114.513 97.732 104.989 95.686 104.905 96.185 C 104.822 96.684 114.523 97.932 114.513 98.287 C 114.503 98.642 104.773 97.133 104.748 97.527 C 104.724 97.92 114.524 98.825 114.505 99.282 C 114.485 99.74 104.76 98.439 104.724 98.886 C 104.689 99.332 114.465 99.895 114.457 100.3 C 114.45 100.705 104.673 99.731 104.707 100.092 C 104.741 100.453 114.593 100.958 114.585 101.363 C 114.577 101.768 104.655 100.902 104.736 101.426 C 104.816 101.951 114.563 101.843 114.61 102.345 C 114.657 102.847 104.765 102.242 104.831 102.733 C 104.898 103.224 114.657 102.883 114.674 103.341 C 114.691 103.799 104.927 103.485 104.927 103.932 C 104.928 104.378 114.788 103.888 114.827 104.313 C 114.866 104.737 104.958 104.495 105.06 105.131 C 105.162 105.766 114.896 104.854 115.008 105.207 C 115.179 105.829 105.136 105.894 105.25 106.405 C 105.363 106.916 115.136 105.679 115.235 106.192 C 115.335 106.706 105.515 107.138 105.606 107.646 C 105.698 108.154 115.472 106.593 115.594 107.146 C 115.715 107.698 105.846 108.508 105.918 109.063 C 105.989 109.618 115.759 107.402 115.911 107.999 C 116.063 108.596 106.284 109.949 106.365 110.438 C 106.445 110.927 116.174 108.611 116.366 108.969 C 116.558 109.328 106.838 111.095 106.919 111.584 C 107 112.072 116.581 109.295 116.744 109.767 C 116.908 110.24 107.234 112.387 107.425 112.854 C 107.617 113.321 117.141 110.288 117.238 110.716 C 117.336 111.144 107.774 113.535 107.954 113.983 C 108.236 114.656 117.574 111.256 117.721 111.681 C 117.869 112.106 108.515 114.94 108.685 115.368 C 108.854 115.796 118.005 112.137 118.177 112.579 C 118.349 113.021 109.094 116.102 109.297 116.589 C 109.499 117.075 118.165 113.331 118.328 113.803 C 118.492 114.276 109.955 117.383 110.206 117.709 C 110.456 118.035 118.06 114.72 118.227 115.17 C 118.393 115.62 111.24 118.286 111.541 118.573 C 111.841 118.86 117.486 116.214 117.603 116.631 C 117.72 117.048 112.421 118.805 112.867 118.949 C 113.858 119.268 116.773 118.399 117.177 117.031" style="fill:none;fill-rule:nonzero;stroke:black;stroke-width:1.5px;"/>
  <path d="M 297.545 126.076 C 299.202 129.223 304.337 127.853 304.408 127.27 C 304.479 126.687 297.233 126.377 297.19 125.74 C 297.148 125.104 305.7 126.344 305.934 125.679 C 306.168 125.015 296.48 124.575 296.579 123.947 C 296.679 123.318 306.46 124.345 306.595 123.765 C 306.73 123.185 296.479 122.907 296.657 122.234 C 296.836 121.56 306.721 122.475 306.87 121.897 C 307.018 121.319 296.757 121.333 296.885 120.659 C 297.014 119.985 306.855 120.77 307.083 120.234 C 307.311 119.697 296.92 119.67 297.029 119.121 C 297.137 118.573 307.042 119.139 307.228 118.46 C 307.414 117.781 297.228 118.086 297.296 117.481 C 297.363 116.876 307.303 117.083 307.371 116.65 C 307.44 116.217 297.235 116.598 297.347 115.936 C 297.459 115.273 307.277 115.21 307.405 114.808 C 307.585 114.171 297.32 115.115 297.348 114.439 C 297.376 113.764 307.272 113.57 307.346 113.059 C 307.42 112.548 297.247 114.216 297.347 112.907 C 297.381 112.154 307.28 111.71 307.303 111.298 C 307.342 110.689 297.079 111.977 297.121 111.354 C 297.162 110.73 307.164 109.866 307.174 109.488 C 307.201 108.912 296.954 110.733 296.942 109.951 C 296.93 109.168 306.762 108.156 306.768 107.756 C 306.782 107.128 296.748 109.276 296.707 108.453 C 296.665 107.63 306.494 106.459 306.48 106.049 C 306.459 105.459 296.379 107.628 296.31 106.937 C 296.24 106.246 306.14 104.85 306.122 104.331 C 306.104 103.813 296.07 106.097 296.032 105.482 C 295.993 104.868 305.696 103.183 305.686 102.659 C 305.676 102.134 295.626 104.516 295.538 103.851 C 295.45 103.185 305.282 101.592 305.272 101.018 C 305.263 100.444 295.204 102.932 295.111 102.344 C 295.018 101.757 304.804 99.863 304.715 99.298 C 304.625 98.732 294.759 101.587 294.688 100.809 C 294.618 100.032 304.242 98.034 304.162 97.635 C 304.082 97.236 294.311 99.848 294.218 99.26 C 294.008 98.461 303.833 96.502 303.772 96.027 C 303.687 95.297 293.929 98.42 293.858 97.692 C 293.787 96.965 303.37 94.861 303.363 94.494 C 303.357 94.128 293.57 96.888 293.431 96.136 C 293.293 95.384 302.997 93.191 302.926 92.872 C 302.79 92.327 293.059 95.096 292.986 94.383 C 292.913 93.67 302.597 91.466 302.524 91.161 C 302.423 90.666 292.717 93.231 292.643 92.617 C 292.568 92.004 302.321 89.776 302.279 89.497 C 302.192 88.918 292.509 91.651 292.465 90.979 C 292.422 90.306 302.285 88.553 302.223 87.906 C 302.161 87.259 292.2 89.762 292.181 89.022 C 292.162 88.282 302.141 86.483 302.14 86.125 C 302.138 85.509 292.042 87.912 292.009 87.169 C 291.976 86.427 302.149 85.167 302.111 84.774 C 302.054 84.135 292.028 86.055 292.015 85.459 C 292.002 84.863 302.176 83.911 302.169 83.409 C 302.163 82.907 292.08 84.238 292.103 83.64 C 292.126 83.043 302.302 82.571 302.329 82.131 C 302.367 81.436 292.1 82.616 292.146 81.965 C 292.192 81.313 302.362 81.242 302.437 80.817 C 302.511 80.392 292.38 80.806 292.426 80.291 C 292.472 79.775 302.663 80.022 302.683 79.488 C 302.703 78.955 292.573 79.183 292.64 78.578 C 292.707 77.973 302.833 78.589 302.935 78.168 C 303.038 77.748 292.892 77.257 292.988 76.743 C 293.083 76.228 303.144 77.435 303.272 76.897 C 303.401 76.359 293.238 75.659 293.313 75.098 C 293.387 74.537 303.54 76.109 303.658 75.591 C 303.776 75.072 293.636 73.96 293.771 73.516 C 293.905 73.072 303.994 74.828 304.098 74.307 C 304.202 73.787 294.005 72.444 294.251 71.795 C 294.497 71.147 304.436 73.53 304.635 72.903 C 304.835 72.276 294.622 70.809 294.853 70.208 C 295.147 69.439 304.989 72.251 305.167 71.713 C 305.346 71.176 295.271 69.287 295.436 68.697 C 295.601 68.108 305.488 71.048 305.658 70.517 C 305.828 69.985 295.778 68.028 296.094 67.255 C 296.341 66.643 306.125 69.646 306.367 69.247 C 306.609 68.849 296.62 66.329 296.888 65.677 C 297.156 65.025 306.809 68.58 307.089 67.944 C 307.369 67.308 297.551 64.837 297.739 64.194 C 297.926 63.55 307.445 67.549 307.78 66.786 C 308.049 66.22 298.276 63.47 298.513 62.741 C 298.75 62.013 308.162 66.324 308.524 65.615 C 308.887 64.907 299.131 61.822 299.386 61.254 C 299.64 60.686 308.997 65.025 309.328 64.562 C 309.66 64.099 300.099 60.365 300.344 59.767 C 300.589 59.168 309.855 64.13 310.176 63.55 C 310.497 62.971 301.117 58.908 301.468 58.369 C 301.818 57.831 310.707 62.954 310.947 62.434 C 311.187 61.913 302.105 57.511 302.464 57.002 C 303.01 56.223 311.576 61.853 311.848 61.309 C 312.12 60.766 303.208 55.968 303.544 55.477 C 303.879 54.986 312.403 60.696 312.751 60.171 C 313.1 59.646 304.351 54.581 304.766 54.045 C 305.18 53.509 313.426 59.483 313.781 58.916 C 314.135 58.35 305.498 53.08 305.923 52.746 C 306.349 52.413 313.877 57.994 314.219 57.461 C 314.561 56.928 307.029 52.005 307.499 51.75 C 307.969 51.495 313.983 56.235 314.262 55.785 C 314.541 55.336 308.633 51.594 309.227 51.459 C 311.056 51.032 314.062 53.706 314.126 55.377" style="fill:none;fill-rule:nonzero;stroke:black;stroke-width:1.5px;"/>
  <path d="M 281.164 51.893 C 283.314 49.059 288.137 51.248 288.137 51.822 C 288.137 52.397 280.909 51.541 280.764 52.163 C 280.619 52.786 289.252 52.945 289.377 53.635 C 289.502 54.325 279.907 53.226 279.866 53.795 C 279.825 54.364 289.686 54.997 289.72 55.608 C 289.755 56.218 279.551 54.841 279.633 55.506 C 279.714 56.171 289.585 56.884 289.659 57.489 C 289.733 58.094 279.584 56.419 279.606 57.091 C 279.628 57.764 289.476 58.62 289.595 59.179 C 289.714 59.739 279.476 58.085 279.453 58.641 C 279.431 59.198 289.343 60.248 289.42 60.954 C 289.483 61.47 279.483 59.706 279.456 60.303 C 279.429 60.901 289.265 62.323 289.258 62.757 C 289.251 63.191 279.268 61.153 279.252 61.84 C 279.235 62.527 288.938 64.167 288.98 64.595 C 289.06 65.25 279.08 62.657 279.002 63.331 C 278.923 64.006 288.645 65.805 288.638 66.319 C 288.63 66.834 278.86 63.49 278.703 64.839 C 278.613 65.586 288.305 67.63 288.265 68.048 C 288.208 68.649 278.287 65.716 278.222 66.339 C 278.158 66.961 287.89 69.424 287.846 69.802 C 287.777 70.385 277.989 66.982 277.824 67.687 C 277.658 68.393 287.226 71.067 287.172 71.446 C 287.087 72.071 277.516 68.299 277.355 69.125 C 277.225 69.786 286.689 72.684 286.607 73.087 C 286.487 73.666 276.894 69.877 276.725 70.553 C 276.556 71.228 286.08 74.21 285.971 74.717 C 285.862 75.224 276.348 71.344 276.202 71.957 C 276.056 72.569 285.367 75.788 285.269 76.304 C 285.133 76.996 275.646 72.841 275.442 73.481 C 275.238 74.12 284.695 77.292 284.593 77.848 C 284.49 78.405 274.963 74.336 274.815 74.938 C 274.667 75.541 283.984 78.961 283.798 79.497 C 283.612 80.034 274.335 75.622 274.156 76.379 C 273.977 77.137 283.136 80.677 282.999 81.036 C 282.862 81.396 273.665 77.225 273.422 77.789 C 273.082 78.546 282.462 82.079 282.327 82.539 C 282.12 83.23 273.005 78.576 272.775 79.249 C 272.545 79.922 281.711 83.592 281.608 83.988 C 281.506 84.383 272.327 80.029 272.074 80.756 C 271.82 81.482 281.034 85.217 280.909 85.514 C 280.69 86.025 271.537 81.718 271.339 82.407 C 271.142 83.097 280.358 86.851 280.26 87.115 C 280.095 87.579 270.925 83.466 270.758 84.071 C 270.59 84.676 279.849 88.445 279.76 88.708 C 279.576 89.265 270.451 85.015 270.318 85.656 C 270.185 86.297 279.613 89.643 279.438 90.269 C 279.263 90.895 269.845 86.812 269.75 87.519 C 269.656 88.226 279.163 91.643 279.095 91.994 C 278.997 92.59 269.418 88.588 269.275 89.31 C 269.132 90.033 278.949 92.938 278.835 93.315 C 278.679 93.939 269.099 90.42 268.989 90.998 C 268.878 91.576 278.769 94.18 278.669 94.676 C 278.569 95.171 268.856 92.213 268.778 92.807 C 268.699 93.401 278.672 95.521 278.624 95.951 C 278.548 96.645 268.609 93.815 268.548 94.467 C 268.487 95.12 278.512 96.841 278.515 97.274 C 278.517 97.707 268.583 95.652 268.557 96.179 C 268.531 96.706 278.606 98.099 278.55 98.63 C 278.494 99.16 268.522 97.292 268.49 97.85 C 268.458 98.408 278.562 99.464 278.578 99.926 C 278.595 100.387 268.508 99.147 268.479 99.725 C 268.473 100.421 278.611 100.687 278.65 101.247 C 278.688 101.806 268.524 100.838 268.595 101.414 C 268.666 101.989 278.863 102.077 278.876 102.599 C 278.91 103.28 268.729 102.586 268.785 103.043 C 268.862 103.668 279.087 103.41 279.113 103.951 C 279.139 104.491 268.84 104.144 268.983 104.822 C 269.127 105.499 279.313 104.762 279.423 105.414 C 279.484 105.91 269.201 105.853 269.328 106.482 C 269.498 107.287 279.672 106.129 279.749 106.673 C 279.826 107.218 269.589 107.457 269.654 108.064 C 269.718 108.671 279.957 107.383 280.045 107.937 C 280.094 108.334 269.893 108.78 270.073 109.594 C 270.223 110.241 280.361 108.865 280.537 109.317 C 280.714 109.769 270.428 110.679 270.621 111.351 C 270.815 112.022 280.884 110.091 281.048 110.766 C 281.211 111.441 271.158 112.272 271.244 112.977 C 271.308 113.493 281.369 111.25 281.596 112.028 C 281.769 112.622 271.683 113.759 271.826 114.517 C 271.97 115.276 281.931 112.541 282.169 113.248 C 282.406 113.954 272.286 115.469 272.441 116.074 C 272.595 116.68 282.542 113.907 282.796 114.42 C 283.05 114.933 272.995 117.064 273.123 117.693 C 273.251 118.322 283.165 114.959 283.412 115.583 C 283.66 116.208 273.719 118.688 273.972 119.271 C 274.225 119.855 283.827 116.248 283.985 116.803 C 284.193 117.513 274.461 120.219 274.732 120.79 C 275.15 121.646 284.511 117.474 284.731 118.031 C 284.95 118.588 275.331 121.895 275.59 122.438 C 275.848 122.98 285.209 118.728 285.441 119.304 C 285.673 119.88 276.229 123.458 276.552 124.042 C 276.876 124.627 285.99 120.083 286.217 120.7 C 286.444 121.317 277.098 125.124 277.459 125.523 C 277.821 125.922 286.16 121.634 286.413 122.217 C 286.666 122.801 278.427 126.432 278.86 126.751 C 279.292 127.071 285.983 123.388 286.169 123.839 C 286.355 124.29 279.945 127.061 280.548 127.29 C 282.278 128.004 285.682 125.863 286.015 124.221" style="fill:none;fill-rule:nonzero;stroke:black;stroke-width:1.5px;"/>
  <path d="M 198.708 126.825 C 200.69 130.225 205.896 128.725 205.944 128.132 C 205.992 127.54 198.504 127.144 198.438 126.49 C 198.371 125.836 207.219 127.228 207.446 126.492 C 207.673 125.755 197.873 125.236 197.917 124.608 C 197.962 123.98 207.902 125.132 207.996 124.502 C 208.091 123.872 197.956 123.432 198.081 122.713 C 198.206 121.994 208.009 123.166 208.145 122.541 C 208.282 121.915 198.139 121.752 198.221 121.043 C 198.303 120.333 208.161 121.177 208.331 120.577 C 208.5 119.976 198.194 119.945 198.309 119.324 C 198.424 118.703 208.252 119.431 208.399 118.707 C 208.546 117.983 198.386 118.259 198.411 117.607 C 198.437 116.956 208.404 117.236 208.477 116.752 C 208.549 116.269 198.37 116.65 198.406 115.9 C 198.442 115.15 208.336 115.181 208.426 114.735 C 208.562 114.045 198.338 114.99 198.346 114.237 C 198.354 113.484 208.419 113.376 208.463 112.826 C 208.506 112.276 198.468 113.959 198.425 112.539 C 198.403 111.733 208.327 111.34 208.332 110.886 C 208.336 110.239 198.289 111.53 198.289 110.861 C 198.288 110.193 208.336 109.365 208.329 108.959 C 208.324 108.332 198.343 110.006 198.229 109.198 C 198.115 108.39 208.106 107.492 208.086 107.07 C 208.057 106.399 198.186 108.383 198.093 107.442 C 198 106.501 207.926 105.489 207.879 105.051 C 207.818 104.418 198.055 106.457 197.935 105.705 C 197.815 104.953 207.703 103.752 207.64 103.198 C 207.578 102.644 197.764 104.762 197.677 104.099 C 197.59 103.436 207.44 101.855 207.37 101.307 C 207.293 100.545 197.491 103.027 197.338 102.315 C 197.186 101.602 207.089 100.055 207.048 99.432 C 207.007 98.809 197.113 101.274 197.013 100.609 C 196.912 99.945 206.87 98.211 206.728 97.606 C 206.585 97.001 196.794 99.641 196.635 98.856 C 196.476 98.072 206.279 96.194 206.184 95.807 C 206.09 95.42 196.402 97.694 196.192 97.053 C 195.913 96.185 205.887 94.581 205.784 94.073 C 205.645 93.298 195.825 96.076 195.68 95.293 C 195.535 94.51 205.36 92.692 205.292 92.258 C 205.192 91.657 195.475 94.34 195.276 93.523 C 195.078 92.706 204.935 90.848 204.86 90.549 C 204.68 89.961 194.778 92.575 194.64 91.8 C 194.501 91.024 204.299 89.125 204.236 88.841 C 204.107 88.315 194.38 90.62 194.257 89.961 C 194.134 89.301 203.959 87.418 203.898 87.12 C 203.751 86.493 193.974 88.8 193.899 88.089 C 193.825 87.377 203.692 86.103 203.566 85.407 C 203.44 84.712 193.597 86.969 193.557 86.204 C 193.516 85.439 203.235 84.093 203.211 83.713 C 203.16 83.047 193.339 85.093 193.266 84.303 C 193.193 83.514 203.127 82.752 203.057 82.332 C 202.952 81.646 193.1 83.177 193.046 82.538 C 192.992 81.9 202.998 81.48 202.954 80.949 C 202.91 80.418 192.955 81.441 192.923 80.798 C 192.892 80.154 202.899 80.118 202.892 79.648 C 202.878 78.9 192.877 79.755 192.879 79.058 C 192.881 78.362 202.81 78.737 202.876 78.31 C 202.942 77.883 192.88 77.899 192.922 77.363 C 192.964 76.827 202.936 77.605 202.915 76.992 C 202.894 76.378 192.965 76.273 192.991 75.622 C 193.017 74.97 202.967 76.087 203.025 75.603 C 203.083 75.118 193.105 74.475 193.14 73.931 C 193.176 73.387 203.072 74.818 203.155 74.237 C 203.237 73.655 193.273 72.871 193.33 72.259 C 193.388 71.646 203.276 73.418 203.342 72.863 C 203.407 72.308 193.456 71.063 193.577 70.592 C 193.697 70.122 203.484 72.053 203.57 71.508 C 203.655 70.962 193.655 69.641 193.87 68.952 C 194.084 68.264 203.657 70.806 203.835 70.135 C 204.012 69.464 194.011 67.95 194.213 67.31 C 194.464 66.477 203.999 69.32 204.136 68.759 C 204.273 68.197 194.438 66.317 194.589 65.693 C 194.74 65.069 204.333 67.969 204.47 67.407 C 204.607 66.846 194.728 64.912 195.008 64.081 C 195.225 63.428 204.705 66.522 204.904 66.116 C 205.103 65.711 195.197 63.155 195.505 62.455 C 195.814 61.755 205.076 65.359 205.319 64.674 C 205.561 63.988 195.847 61.574 196.005 60.879 C 196.164 60.185 205.517 64.14 205.834 63.356 C 206.082 62.756 196.343 60.104 196.533 59.307 C 196.724 58.509 205.83 62.986 206.185 62.184 C 206.539 61.382 196.935 58.325 197.162 57.716 C 197.39 57.107 206.427 61.37 206.735 60.877 C 207.042 60.383 197.77 56.735 197.981 56.089 C 198.191 55.442 207.026 60.267 207.322 59.68 C 207.619 59.093 198.337 55.131 198.66 54.56 C 198.983 53.99 207.689 59.036 207.912 58.469 C 208.135 57.903 199.108 53.619 199.449 53.072 C 199.971 52.238 208.345 57.797 208.61 57.234 C 208.876 56.672 200.034 51.839 200.36 51.305 C 200.687 50.77 209.056 56.449 209.385 55.887 C 209.714 55.324 201.012 50.314 201.382 49.77 C 201.752 49.226 210.009 55.227 210.335 54.629 C 210.661 54.03 202.046 48.731 202.461 48.369 C 202.876 48.007 210.701 53.778 211.024 53.208 C 211.348 52.637 203.494 47.532 203.985 47.263 C 204.475 46.995 210.908 51.951 211.133 51.435 C 211.358 50.918 204.953 46.981 205.605 46.801 C 207.506 46.368 210.87 49.267 211.065 51.065" style="fill:none;fill-rule:nonzero;stroke:black;stroke-width:1.5px;"/>
  <path d="M 306.467 88.159 C 306.111 90.261 303.542 92.241 301.567 91.982 C 301.188 91.931 306.784 88.13 306.613 87.809 C 306.442 87.488 300.549 92.011 300.398 91.681 C 300.247 91.352 306.807 87.434 306.628 87.014 C 306.374 86.422 299.516 91.431 299.319 91.261 C 299.044 90.876 306.682 86.663 306.532 86.241 C 306.382 85.819 298.58 90.816 298.407 90.573 C 298.234 90.33 306.635 86.092 306.399 85.662 C 306.163 85.232 297.914 90.012 297.745 89.733 C 297.577 89.455 306.466 85.707 306.211 85.101 C 305.956 84.495 297.44 89.216 297.325 88.891 C 297.21 88.566 306.143 84.936 305.946 84.46 C 305.75 83.985 297.011 88.247 296.875 87.93 C 296.739 87.613 305.874 84.331 305.68 83.898 C 305.487 83.465 296.633 87.309 296.511 86.977 C 296.388 86.646 305.57 83.735 305.434 83.312 C 305.298 82.89 296.287 86.412 296.219 86.048 C 296.151 85.684 305.447 83.297 305.231 82.738 C 305.014 82.179 296.058 85.364 295.922 85.048 C 295.787 84.731 305.201 82.514 305.082 82.132 C 304.963 81.75 295.796 84.461 295.688 84.129 C 295.579 83.796 304.983 81.834 304.932 81.405 C 304.825 80.583 295.546 83.515 295.47 83.144 C 295.394 82.774 304.936 81.157 304.821 80.74 C 304.707 80.322 295.426 82.722 295.319 82.205 C 295.212 81.688 304.828 80.534 304.725 80.073 C 304.622 79.612 295.259 81.649 295.173 81.23 C 295.05 80.579 304.812 80.095 304.687 79.523 C 304.562 78.95 295.14 80.857 295.047 80.232 C 294.953 79.608 304.684 79.48 304.606 78.976 C 304.528 78.471 294.979 79.975 294.98 79.379 C 294.981 78.784 304.522 78.691 304.523 78.188 C 304.523 77.684 294.925 78.894 294.889 78.386 C 294.854 77.878 304.427 77.932 304.425 77.4 C 304.423 76.869 294.873 77.948 294.86 77.368 C 294.848 76.787 304.429 77.351 304.442 76.832 C 304.455 76.314 294.816 76.931 294.8 76.401 C 294.784 75.87 304.397 76.793 304.409 76.154 C 304.414 75.721 294.881 75.941 294.828 75.484 C 294.775 75.027 304.436 76.032 304.463 75.512 C 304.491 74.993 294.851 74.894 294.88 74.51 C 294.931 73.918 304.503 75.268 304.548 74.698 C 304.593 74.128 294.967 74.029 294.935 73.563 C 294.902 73.097 304.55 74.223 304.577 73.902 C 304.604 73.581 294.92 73.458 295.03 72.692 C 295.139 71.925 304.552 73.84 304.605 73.291 C 304.659 72.741 295.129 72.089 295.136 71.685 C 295.144 71.28 304.678 72.903 304.726 72.588 C 304.775 72.272 295.21 71.112 295.268 70.726 C 295.326 70.339 304.699 72.299 304.823 71.837 C 304.946 71.374 295.33 70.303 295.406 69.865 C 295.531 69.219 304.876 71.79 304.99 71.187 C 305.104 70.584 295.592 69.285 295.625 68.943 C 295.658 68.6 304.975 70.777 305.026 70.49 C 305.077 70.203 295.765 68.401 295.856 67.991 C 295.948 67.58 305.189 70.181 305.281 69.77 C 305.373 69.36 295.983 67.465 296.06 67.055 C 296.138 66.646 305.367 69.275 305.478 68.948 C 305.651 68.476 296.125 66.661 296.25 66.227 C 296.376 65.793 305.59 68.714 305.68 68.381 C 305.808 67.883 296.406 65.713 296.492 65.324 C 296.578 64.935 305.713 68.039 305.801 67.678 C 305.889 67.318 296.639 64.895 296.757 64.455 C 296.875 64.014 305.865 67.376 306.003 67.019 C 306.141 66.662 296.937 63.882 297.104 63.537 C 297.272 63.192 306.116 66.813 306.261 66.448 C 306.405 66.084 297.269 62.952 297.382 62.639 C 297.495 62.326 306.488 66.05 306.654 65.691 C 306.82 65.332 297.628 62.111 297.725 61.771 C 297.822 61.431 306.765 65.35 306.879 64.959 C 306.994 64.568 297.922 61.24 298.067 60.876 C 298.211 60.511 306.921 64.743 307.085 64.356 C 307.25 63.969 298.328 60.361 298.449 60.055 C 298.569 59.749 307.161 64.025 307.362 63.656 C 307.564 63.288 298.682 59.542 298.837 59.227 C 298.992 58.911 307.514 63.391 307.636 63.006 C 307.758 62.622 299.174 58.672 299.267 58.382 C 299.36 58.092 307.81 62.76 307.975 62.387 C 308.141 62.014 299.572 57.878 299.693 57.572 C 299.813 57.266 308.203 62.095 308.391 61.741 C 308.579 61.388 299.992 57.09 300.172 56.716 C 300.351 56.342 308.586 61.38 308.776 61.069 C 308.967 60.758 300.403 56.282 300.629 55.961 C 300.855 55.641 308.899 60.898 309.089 60.573 C 309.359 60.079 300.979 55.391 301.171 55.094 C 301.363 54.797 309.21 60.373 309.474 59.993 C 309.738 59.613 301.545 54.558 301.705 54.313 C 301.865 54.067 309.681 59.709 309.871 59.384 C 310.061 59.059 301.957 53.763 302.214 53.483 C 302.471 53.203 310.054 59.066 310.268 58.775 C 310.615 58.375 302.67 53.111 302.933 52.823 C 303.197 52.535 310.144 58.628 310.517 58.183 C 310.89 57.739 303.644 52.554 303.877 52.332 C 304.11 52.11 310.43 57.658 310.665 57.358 C 311.071 56.89 304.627 52.109 304.882 51.907 C 305.137 51.705 310.429 56.729 310.663 56.521 C 310.896 56.314 305.993 52.078 306.223 51.828 C 306.454 51.577 310.464 55.805 310.55 55.509 C 310.722 54.93 308.668 51.912 306.96 52.017" style="fill:none;fill-rule:nonzero;stroke:black;stroke-width:1.5px;"/>
  <path d="M 89.19 116.033 C 91.19 118.033 94.72 116.913 94.76 116.473 C 94.8 116.033 88.94 116.323 88.89 115.843 C 88.84 115.363 95.89 116.003 96 115.493 C 96.11 114.983 87.94 115.053 88 114.593 C 88.06 114.133 96.83 114.513 96.91 114.063 C 96.99 113.613 87.44 113.693 87.5 113.223 C 87.56 112.753 97.08 113.103 97.19 112.643 C 97.3 112.183 87.43 112.523 87.5 112.013 C 87.57 111.503 97.18 111.733 97.32 111.313 C 97.46 110.893 87.45 111.373 87.52 110.943 C 87.59 110.513 97.18 110.483 97.3 109.943 C 97.42 109.403 87.52 110.153 87.55 109.693 C 87.58 109.233 97.33 108.843 97.36 108.513 C 97.39 108.183 87.51 109.043 87.55 108.513 C 87.59 107.983 97.23 107.403 97.3 107.073 C 97.41 106.583 87.43 107.923 87.43 107.413 C 87.43 106.903 97.16 106.063 97.19 105.673 C 97.22 105.283 87.35 107.223 87.34 106.223 C 87.34 105.653 96.95 104.663 96.96 104.333 C 96.97 104.003 87.22 105.603 87.23 105.123 C 87.24 104.643 96.79 103.243 96.79 102.953 C 96.79 102.503 87.12 104.683 87.06 104.103 C 87 103.523 96.52 101.953 96.51 101.653 C 96.51 101.173 86.81 103.383 86.76 102.743 C 86.71 102.103 96.26 100.613 96.23 100.303 C 96.2 99.993 86.62 102.303 86.54 101.783 C 86.46 101.263 95.97 99.353 95.93 98.963 C 95.89 98.573 86.36 101.223 86.3 100.723 C 86.24 100.223 95.67 98.013 95.64 97.623 C 95.64 97.083 86.1 100.093 86 99.623 C 85.9 99.153 95.3 96.793 95.27 96.363 C 95.24 95.933 85.68 98.953 85.62 98.483 C 85.56 98.013 95 95.483 94.91 95.083 C 94.82 94.683 85.34 97.713 85.26 97.133 C 85.18 96.553 94.6 94.133 94.53 93.843 C 94.46 93.553 85.03 96.353 84.89 95.903 C 84.75 95.453 94.29 93.003 94.23 92.653 C 94.13 92.103 84.69 95.283 84.58 94.753 C 84.47 94.223 93.89 91.753 93.85 91.453 C 93.81 91.153 84.36 93.993 84.23 93.453 C 84.1 92.913 93.64 90.453 93.57 90.253 C 93.44 89.843 84.04 92.783 83.95 92.253 C 83.86 91.723 93.36 89.183 93.31 88.983 C 93.22 88.613 83.79 91.323 83.71 90.863 C 83.63 90.403 93.1 88.033 93.06 87.863 C 92.96 87.423 83.51 90.053 83.47 89.563 C 83.43 89.073 93.15 87.133 93.07 86.653 C 92.99 86.173 83.35 88.653 83.33 88.113 C 83.31 87.573 93.01 85.693 92.99 85.413 C 92.99 84.953 83.26 87.313 83.22 86.753 C 83.18 86.193 93.04 84.753 93 84.423 C 92.93 83.933 83.17 85.773 83.14 85.323 C 83.11 84.873 93.03 83.823 93.01 83.433 C 92.99 83.043 83.16 84.543 83.15 84.083 C 83.14 83.623 93.15 82.843 93.15 82.513 C 93.15 81.983 83.3 83.113 83.31 82.613 C 83.32 82.113 93.15 81.933 93.19 81.613 C 93.23 81.293 83.38 81.833 83.39 81.433 C 83.4 81.033 93.28 81.053 93.28 80.643 C 93.28 80.233 83.53 80.643 83.56 80.143 C 83.59 79.643 93.33 80.033 93.38 79.693 C 93.43 79.353 83.58 79.193 83.62 78.793 C 83.66 78.393 93.48 79.163 93.55 78.743 C 93.62 78.323 83.8 77.933 83.85 77.493 C 83.9 77.053 93.62 78.133 93.68 77.733 C 93.74 77.333 83.9 76.533 83.99 76.223 C 84.08 75.913 93.88 77.023 93.99 76.623 C 94.1 76.223 84.13 75.403 84.29 74.903 C 84.45 74.403 94.05 76.153 94.18 75.663 C 94.31 75.173 84.45 74.103 84.61 73.663 C 84.77 73.223 94.32 75.153 94.42 74.743 C 94.52 74.333 84.82 72.973 84.92 72.523 C 85.02 72.073 94.63 74.223 94.74 73.813 C 94.85 73.403 85.05 71.973 85.25 71.373 C 85.45 70.773 94.9 73.283 95.07 72.963 C 95.24 72.643 85.44 70.583 85.61 70.093 C 85.78 69.603 95.23 72.473 95.41 71.973 C 95.59 71.473 86.04 69.423 86.16 68.973 C 86.28 68.523 95.71 71.683 95.96 71.103 C 96.21 70.523 86.57 68.103 86.72 67.553 C 86.87 67.003 96.15 70.783 96.44 70.223 C 96.73 69.663 87.27 66.653 87.44 66.223 C 87.61 65.793 96.81 69.713 97.05 69.343 C 97.29 68.973 88.05 65.643 88.18 65.183 C 88.31 64.723 97.31 69.063 97.55 68.613 C 97.79 68.163 88.62 64.443 88.86 64.023 C 89.1 63.603 98 68.183 98.17 67.773 C 98.34 67.363 89.31 63.403 89.57 62.993 C 89.95 62.373 98.57 67.303 98.8 66.903 C 99.03 66.503 90.29 62.173 90.53 61.783 C 90.77 61.393 99.16 66.503 99.41 66.093 C 99.66 65.683 91.03 61.093 91.33 60.653 C 91.63 60.213 99.52 65.363 99.77 64.913 C 100.02 64.463 92.11 59.983 92.42 59.703 C 92.73 59.423 99.65 63.973 99.89 63.553 C 100.13 63.133 93.53 59.303 93.89 59.073 C 94.25 58.843 99.37 62.403 99.56 62.073 C 99.75 61.743 94.82 59.073 95.28 58.993 C 96.54 58.813 99.11 60.373 99.28 61.643" style="fill:none;fill-rule:nonzero;stroke:black;stroke-width:1.5px;"/>
  <path d="M 174.785 48.401 C 176.998 45.148 182.107 46.992 182.095 47.608 C 182.094 48.058 174.604 48.064 174.476 48.733 C 174.348 49.401 183.281 48.621 183.432 49.343 C 183.584 50.065 173.802 49.931 173.79 50.547 C 173.778 51.164 183.779 50.729 183.832 51.371 C 183.886 52.012 173.734 51.725 173.785 52.43 C 173.836 53.135 183.713 52.685 183.807 53.332 C 183.902 53.979 173.767 53.398 173.801 54.118 C 173.835 54.838 183.717 54.711 183.87 55.263 C 184.022 55.814 173.716 55.178 173.746 55.768 C 173.777 56.358 183.681 56.368 183.771 57.11 C 183.848 57.664 173.743 56.838 173.729 57.486 C 173.716 58.135 183.701 58.604 183.706 59.067 C 183.71 59.529 173.631 58.413 173.625 59.182 C 173.619 59.95 183.469 60.604 183.531 61.056 C 183.617 61.753 173.514 60.114 173.44 60.835 C 173.367 61.557 183.429 62.41 183.433 62.957 C 183.437 63.505 173.544 61.122 173.399 62.533 C 173.315 63.337 183.187 64.437 183.201 64.903 C 183.165 65.554 173.233 63.551 173.181 64.217 C 173.129 64.882 183.11 66.422 183.07 66.835 C 183.023 67.459 173.184 65.075 173.03 65.894 C 172.876 66.713 182.814 68.311 182.713 68.712 C 182.636 69.389 172.937 66.694 172.786 67.589 C 172.662 68.302 182.48 70.24 182.379 70.672 C 182.265 71.303 172.666 68.572 172.5 69.311 C 172.363 69.891 182.11 71.929 181.986 72.503 C 181.863 73.077 172.257 70.225 172.121 70.858 C 171.941 71.689 181.704 73.797 181.591 74.343 C 181.462 75.097 171.864 71.916 171.641 72.666 C 171.417 73.416 181.217 75.624 181.114 76.227 C 181.011 76.831 171.373 73.699 171.192 74.336 C 171.003 75.164 180.854 77.435 180.669 78.028 C 180.484 78.621 170.869 75.262 170.71 76.068 C 170.55 76.875 180.146 79.391 179.995 79.783 C 179.845 80.175 170.385 77.165 170.112 77.821 C 169.786 78.67 179.609 80.984 179.423 81.47 C 179.227 82.23 169.654 78.791 169.453 79.538 C 169.251 80.286 178.907 82.814 178.827 83.244 C 178.683 83.842 169.18 80.473 168.879 81.257 C 168.578 82.041 178.322 84.56 178.196 84.887 C 177.974 85.466 168.278 82.151 168.092 82.915 C 167.906 83.679 177.525 86.247 177.428 86.499 C 177.234 87.003 167.676 83.998 167.554 84.68 C 167.432 85.361 177.033 87.89 176.922 88.179 C 176.743 88.785 167.128 85.79 167.019 86.52 C 166.91 87.25 176.692 89.226 176.444 89.87 C 176.197 90.514 166.603 87.603 166.525 88.365 C 166.446 89.128 176.026 91.156 175.964 91.539 C 175.875 92.19 166.226 89.451 166.083 90.242 C 165.94 91.033 175.814 92.488 175.777 92.892 C 175.623 93.572 165.907 91.342 165.806 91.967 C 165.705 92.593 175.657 93.735 175.57 94.269 C 175.483 94.803 165.63 93.067 165.554 93.713 C 165.478 94.358 175.453 95.103 175.414 95.569 C 175.342 96.313 165.435 94.749 165.385 95.437 C 165.335 96.125 175.292 96.444 175.31 96.901 C 175.327 97.357 165.305 96.595 165.283 97.154 C 165.261 97.713 175.286 97.631 175.229 98.198 C 175.172 98.765 165.26 98.217 165.247 98.865 C 165.234 99.513 175.22 99.116 175.249 99.598 C 175.278 100.08 165.236 100.039 165.241 100.555 C 165.259 101.29 175.208 100.375 175.261 100.963 C 175.313 101.551 165.304 101.618 165.311 102.242 C 165.318 102.866 175.306 101.794 175.341 102.343 C 175.377 102.893 165.356 103.438 165.446 103.901 C 165.536 104.364 175.441 103.142 175.473 103.701 C 175.505 104.26 165.454 104.857 165.621 105.564 C 165.789 106.271 175.511 104.412 175.625 105.12 C 175.739 105.827 165.677 106.592 165.821 107.248 C 165.966 107.903 175.731 105.931 175.823 106.502 C 175.914 107.073 166.004 108.25 166.089 108.893 C 166.175 109.536 175.957 107.325 176.112 107.898 C 176.266 108.472 166.221 109.693 166.434 110.535 C 166.646 111.377 176.256 108.779 176.451 109.218 C 176.647 109.657 166.556 111.472 166.757 112.148 C 166.958 112.825 176.514 109.949 176.718 110.616 C 176.922 111.284 167.222 113.141 167.305 113.847 C 167.387 114.554 177.024 111.269 177.295 112.07 C 177.567 112.87 167.598 114.646 167.73 115.446 C 167.862 116.247 177.378 112.637 177.637 113.411 C 177.897 114.186 168.14 116.61 168.331 117.23 C 168.521 117.849 177.822 114.243 178.096 114.755 C 178.371 115.268 168.858 118.257 169.006 118.903 C 169.154 119.549 178.328 115.38 178.6 116.009 C 178.873 116.639 169.305 119.939 169.596 120.49 C 169.888 121.041 178.922 116.679 179.099 117.25 C 179.276 117.821 169.98 121.473 170.277 122.037 C 170.735 122.909 179.491 117.958 179.738 118.513 C 179.986 119.069 170.826 123.286 171.094 123.871 C 171.362 124.456 180.131 119.36 180.418 119.952 C 180.705 120.544 171.643 124.896 171.993 125.491 C 172.343 126.086 180.991 120.665 181.276 121.289 C 181.561 121.912 172.584 126.575 172.972 126.959 C 173.36 127.344 181.585 122.157 181.863 122.746 C 182.14 123.334 173.947 127.88 174.421 128.18 C 174.895 128.48 181.625 124.036 181.852 124.531 C 182.08 125.025 175.407 128.569 176.024 128.72 C 177.891 129.297 181.451 126.637 181.787 124.869" style="fill:none;fill-rule:nonzero;stroke:black;stroke-width:1.5px;"/>
</svg>