<?xml version="1.0" encoding="UTF-8" standalone="no"?>
<!DOCTYPE svg PUBLIC "-//W3C//DTD SVG 1.1//EN" "http://www.w3.org/Graphics/SVG/1.1/DTD/svg11.dtd">
<svg width="100%" height="100%" viewBox="0 0 24 21" version="1.1" xmlns="http://www.w3.org/2000/svg" xmlns:xlink="http://www.w3.org/1999/xlink" xml:space="preserve" xmlns:serif="http://www.serif.com/" style="fill-rule:evenodd;clip-rule:evenodd;stroke-linecap:round;stroke-linejoin:round;stroke-miterlimit:1.5;">
    <path id="gbodypart1" d="M13.228,7.35C12.971,7.168 12.377,7.638 12.167,6.908C11.958,6.177 11.775,6.752 11.163,6.3C10.551,5.848 10.25,5.59 10.27,4.974C10.289,4.358 10.16,4.007 10.437,3.537C10.714,3.066 9.148,2.664 10.772,2.321C12.397,1.978 11.841,1.109 12.223,0.774C12.581,0.459 13.315,-0.055 13.674,0.829C14.034,1.713 15.49,1.715 16.074,1.768C16.659,1.822 16.856,2.211 16.856,2.211C16.856,2.211 17.262,3.456 18.195,2.542C19.129,1.628 20.006,3.034 19.312,3.592C18.617,4.15 19.463,5.205 19.87,5.361C20.277,5.516 21.153,6.521 21.153,6.521C21.153,6.521 21.581,7.09 21.042,7.461C20.503,7.831 20.551,8.022 20.93,8.787C21.31,9.552 21.365,9.862 21.991,10.058C22.617,10.253 23.086,10.94 22.66,11.495C22.235,12.05 22.312,12.767 22.995,13.042C23.678,13.317 23.655,14.124 23.107,14.313C22.559,14.503 22.902,14.735 23.107,15.087C23.312,15.439 22.893,15.927 22.326,15.971C21.758,16.015 20.537,16.393 20.763,17.132C20.989,17.87 20.77,17.935 20.093,18.347C19.416,18.76 19.932,19.088 19.2,19.453C18.468,19.818 15.902,21.341 15.74,19.508C15.577,17.674 15.604,18.437 15.126,17.905C14.647,17.374 15.541,17.385 15.516,17.021C15.492,16.657 14.765,16.765 15.46,16.026C16.155,15.288 17.135,14.894 16.912,14.092C16.689,13.29 16.961,12.356 17.023,11.716C17.1,10.926 16.812,10.372 17.079,9.561C17.327,8.807 16.623,8.616 15.907,9.063C15.191,9.511 14.576,8.945 14.735,8.234C14.894,7.523 13.591,7.608 13.228,7.35Z" style="fill:rgb(172,0,173);stroke:rgb(246,0,255);stroke-width:0.28px;"/>
    <g id="gbodypart2">
        <path d="M18.419,8.676C19.022,8.645 19.26,9.01 19.256,9.395C19.251,9.78 19.423,10.224 19.423,10.224C19.423,10.224 19.916,11.173 19.256,11.218C18.596,11.264 17.567,11.189 17.637,11.605C17.708,12.022 17.424,12.087 17.135,12.213C16.845,12.339 16.867,12.966 16.912,13.374C16.956,13.781 17.695,14.024 17.805,14.424C17.914,14.824 17.547,15.468 17.302,15.639C17.057,15.811 16.359,15.91 16.186,16.358C16.013,16.805 15.235,17.718 15.126,16.524C15.016,15.329 14.474,14.064 14.009,15.142C13.544,16.22 13.538,17.05 13.005,17.408C12.471,17.766 11.899,17.119 11.498,17.187C11.096,17.255 10.941,17.974 10.437,17.85C9.933,17.726 9.062,17.178 8.819,18.016C8.575,18.854 7.697,18.698 7.479,19.397C7.261,20.096 5.838,20.365 6.195,19.453C6.553,18.54 5.772,18.545 5.358,18.458C4.945,18.371 5.053,17.697 5.47,16.966C5.887,16.235 4.377,14.965 4.019,16.026C3.66,17.088 3.159,17.422 2.567,17.463C1.976,17.504 -0.073,16.05 1.284,16.247C2.64,16.445 2.794,15.813 2.288,15.418C1.783,15.024 2.046,14.573 3.181,14.258C4.317,13.943 4.744,13.429 4.744,13.429L8.874,6.189L11.386,6.466C11.386,6.466 13.388,7.304 14.121,7.35C14.854,7.396 15.327,7.392 15.237,8.124C15.148,8.856 16.696,8.672 16.688,8.676C16.68,8.68 17.417,8.729 18.419,8.676Z" style="fill:rgb(77,187,145);stroke:rgb(40,170,113);stroke-width:0.22px;"/>
        <path d="M9.265,0.387C10.01,0.3 11.069,0.372 11.33,0.608C11.591,0.844 11.026,1.127 11.274,1.492C11.523,1.857 11.616,1.883 11.665,2.211C11.714,2.538 11.136,3.462 11.274,4.089C11.412,4.717 12.336,4.844 12.447,5.139C12.557,5.435 12.189,7.501 11.888,7.792C11.588,8.083 11.273,8.036 11.051,7.958C10.889,7.901 10.894,7.379 10.605,7.405C10.315,7.431 10.446,8.312 9.991,8.511C9.536,8.709 8.641,8.135 8.428,8.345C8.214,8.554 8.384,8.85 8.372,9.118C8.361,9.387 8.735,9.948 8.651,10.279C8.567,10.61 7.91,10.956 7.87,11.274C7.83,11.592 8.484,12.379 8.484,12.379C8.484,12.379 8.859,12.691 8.484,12.821C8.109,12.951 7.247,13.268 6.642,13.263C6.024,13.258 5.44,12.912 5.247,12.987C5.053,13.062 5.079,14.03 4.856,14.203C4.633,14.375 3.907,14.424 3.907,14.424C3.907,14.424 3.33,14.093 3.628,13.65C3.926,13.207 4.433,13.404 4.186,12.932C3.939,12.459 3.46,12.268 3.46,12.268C3.46,12.268 2.975,11.751 4.13,11.108C5.286,10.465 4.877,10.275 4.856,9.947C4.833,9.592 4.409,8.598 5.191,8.621C5.972,8.644 5.991,7.41 5.916,6.908C5.842,6.406 6.327,5.658 7.033,5.25C7.738,4.842 8.372,4.476 8.372,4.476C8.372,4.476 9.14,4.116 8.484,3.758C7.827,3.4 8.451,2.424 9.042,2.045C9.633,1.666 9.31,1.115 9.321,1.105C9.331,1.096 8.972,0.421 9.265,0.387Z" style="fill:rgb(40,170,113);stroke:rgb(46,143,86);stroke-width:0.17px;"/>
    </g>
</svg>
