<?xml version="1.0" encoding="UTF-8" standalone="no"?>
<!DOCTYPE svg PUBLIC "-//W3C//DTD SVG 1.1//EN" "http://www.w3.org/Graphics/SVG/1.1/DTD/svg11.dtd">
<svg width="100%" height="100%" viewBox="0 0 13 11" version="1.1" xmlns="http://www.w3.org/2000/svg" xmlns:xlink="http://www.w3.org/1999/xlink" xml:space="preserve" xmlns:serif="http://www.serif.com/" style="fill-rule:evenodd;clip-rule:evenodd;stroke-linecap:round;stroke-linejoin:round;">
    <g id="gbody_x5F_part">
        <path id="part2_0_Layer0_0_FILL" d="M8.215,4.014L8.115,3.314C8.215,2.414 7.715,1.714 6.815,1.214C6.115,0.914 5.515,0.914 4.915,1.314C4.615,1.614 4.315,2.014 4.215,2.414C4.115,2.814 4.015,3.314 3.915,3.714C3.915,4.014 3.815,4.214 3.815,4.514C2.915,4.614 2.315,5.014 1.815,5.614C1.415,6.114 1.215,6.714 1.115,7.314C1.015,8.214 1.415,8.614 2.215,8.814C2.515,8.914 2.815,9.114 3.115,9.114C3.415,9.114 3.715,9.214 4.015,9.214C4.415,9.114 4.715,9.014 5.115,8.814C5.415,8.614 5.615,8.314 5.815,8.014C6.315,8.414 6.615,8.714 6.915,8.814C7.215,9.114 7.615,9.314 8.015,9.514C8.315,9.614 8.615,9.814 8.915,9.814C9.415,9.814 9.815,9.714 10.215,9.714C10.515,9.614 10.715,9.414 10.815,9.214C11.015,8.914 11.115,8.514 11.215,8.114C11.215,7.714 11.115,7.414 10.915,7.014C10.615,6.514 10.215,6.114 9.815,5.714C9.415,5.414 9.015,5.114 8.615,4.814C8.515,4.814 8.515,4.714 8.515,4.714L8.215,4.014Z" style="fill:rgb(216,139,255);fill-rule:nonzero;"/>
        <path id="part2_0_Layer0_0_1_STROKES" d="M8.015,3.314C8.115,2.414 7.615,1.714 6.715,1.214C6.015,0.914 5.415,0.914 4.815,1.314C4.515,1.614 4.215,2.014 4.115,2.414C4.015,2.814 3.915,3.314 3.815,3.714C3.815,4.014 3.715,4.214 3.715,4.514C2.815,4.614 2.215,5.014 1.715,5.614C1.315,6.114 1.115,6.714 1.015,7.314C0.915,8.214 1.315,8.614 2.115,8.814C2.415,8.914 2.715,9.114 3.015,9.114C3.315,9.114 3.615,9.214 3.915,9.214C4.315,9.114 4.615,9.014 5.015,8.814C5.315,8.614 5.515,8.314 5.715,8.014C6.215,8.414 6.515,8.714 6.815,8.814C7.115,9.114 7.515,9.314 7.915,9.514C8.215,9.614 8.515,9.814 8.815,9.814C9.315,9.814 9.715,9.714 10.115,9.714C10.415,9.614 10.615,9.414 10.715,9.214C10.915,8.914 11.015,8.514 11.115,8.114C11.115,7.714 11.015,7.414 10.815,7.014C10.515,6.514 10.115,6.114 9.715,5.714C9.315,5.414 8.915,5.114 8.515,4.814C8.415,4.814 8.415,4.714 8.415,4.714L8.215,3.814" style="fill:none;stroke:rgb(153,102,204);stroke-width:2px;"/>
    </g>
</svg>
