<?xml version="1.0" encoding="UTF-8" standalone="no"?>
<!DOCTYPE svg PUBLIC "-//W3C//DTD SVG 1.1//EN" "http://www.w3.org/Graphics/SVG/1.1/DTD/svg11.dtd">
<svg width="100%" height="100%" viewBox="0 0 24 21" version="1.1" xmlns="http://www.w3.org/2000/svg" xmlns:xlink="http://www.w3.org/1999/xlink" xml:space="preserve" xmlns:serif="http://www.serif.com/" style="fill-rule:evenodd;clip-rule:evenodd;stroke-miterlimit:10;">
    <g id="gbodypart1">
        <path d="M23.145,8.443C22.893,7.799 22.489,7.48 22.497,7.443C22.623,6.808 21.573,6.583 21.573,6.583C21.573,6.583 21.863,5.723 21.283,5.387C20.703,5.052 20.197,4.814 19.914,5.022C20.075,4.715 19.997,3.891 18.657,4.082L17.818,4.024C17.801,4.07 17.78,4.116 17.755,4.16C17.584,4.459 17.258,4.666 16.884,4.713C16.877,4.875 16.826,5.033 16.737,5.174C16.588,5.418 16.333,5.598 16.032,5.67C15.829,5.719 15.616,5.717 15.415,5.664C15.251,5.871 14.98,5.99 14.696,5.98C14.637,5.98 14.578,5.975 14.52,5.965C14.536,5.965 14.551,5.971 14.568,5.973C14.761,6.276 14.899,6.48 14.698,6.788C14.661,6.845 14.583,6.951 14.499,7.054C14.372,7.194 14.207,7.303 14.02,7.373C13.325,7.631 13.119,9.758 13.576,10.086L13.57,10.13C13.662,10.164 13.746,10.215 13.814,10.281C13.888,10.342 13.946,10.418 13.985,10.502L13.948,10.546C13.91,10.586 13.873,10.626 13.831,10.663C13.802,10.689 13.776,10.718 13.753,10.749C13.508,10.847 13.354,11.069 13.366,11.308L13.366,11.341C13.361,11.5 13.426,11.655 13.549,11.771L13.531,11.778L13.555,11.811L13.59,11.854C13.604,11.871 13.618,11.888 13.633,11.905C13.647,11.921 13.678,11.956 13.702,11.98L13.754,12.029L13.79,12.062C13.809,12.079 13.828,12.096 13.847,12.111L13.863,12.123C13.905,12.157 13.949,12.189 13.994,12.219L14.023,12.238L14.098,12.282L14.11,12.288C14.161,12.316 14.213,12.342 14.268,12.365L14.295,12.377L14.378,12.409L14.409,12.418L14.487,12.443C14.649,12.486 14.817,12.51 14.986,12.514C14.908,12.636 14.823,12.755 14.73,12.869C14.636,12.989 14.534,13.104 14.425,13.213C14.404,13.233 14.386,13.255 14.365,13.274C13.775,13.274 13.265,13.55 12.851,13.909C12.713,14.028 12.584,14.154 12.464,14.287C12.412,14.345 12.369,14.408 12.335,14.476C12.073,14.593 11.834,14.745 11.625,14.928C11.414,15.114 11.266,15.349 11.197,15.607C11.187,15.646 11.179,15.686 11.173,15.727C10.951,16.009 11.071,16.501 11.534,16.555C11.631,16.615 11.748,16.645 11.866,16.641C11.972,16.643 12.076,16.619 12.167,16.571C12.237,16.582 12.309,16.573 12.372,16.543C12.457,16.5 12.535,16.447 12.604,16.385L12.611,16.38C12.865,16.178 13.139,16.044 13.488,16.036C14.034,16.022 14.423,16.386 14.978,16.241C15.568,16.087 16.034,15.807 16.67,15.771C17.067,15.748 17.291,15.853 17.503,15.619C17.531,15.588 17.556,15.554 17.579,15.52C17.609,15.473 17.645,15.43 17.686,15.391C17.722,15.355 17.764,15.324 17.809,15.298C17.85,15.214 17.899,15.134 17.954,15.057L18.033,15.031C18.083,15.031 18.13,15.024 18.185,15.022C18.685,15.003 19.186,15.01 19.635,14.776C19.72,14.732 19.799,14.678 19.871,14.618C19.991,14.518 20.092,14.402 20.17,14.274L20.199,14.252C20.248,14.215 20.296,14.178 20.344,14.137L20.353,14.129C20.383,14.103 20.411,14.074 20.439,14.043C20.449,14.034 20.46,14.024 20.47,14.014C20.494,13.989 20.516,13.963 20.538,13.937C20.56,13.911 20.563,13.91 20.574,13.896C20.638,13.818 20.694,13.735 20.744,13.649C20.991,13.55 21.214,13.411 21.405,13.24C21.651,13.018 21.831,12.744 21.927,12.443C21.942,12.393 21.956,12.341 21.966,12.289C22.217,11.926 22.45,11.554 22.66,11.171L22.665,11.171C23.025,10.939 23.17,10.626 23.286,10.265C23.368,10.033 23.428,9.196 23.145,8.443Z" style="fill:rgb(112,197,216);fill-rule:nonzero;"/>
        <path d="M22.497,7.439C22.623,6.804 21.573,6.579 21.573,6.579C21.573,6.579 21.863,5.719 21.283,5.383L21.275,5.378C21.275,5.388 21.266,5.398 21.263,5.407C21.221,5.548 21.241,5.698 21.319,5.825C21.215,5.848 21.119,5.896 21.043,5.965C20.924,6.07 20.854,6.212 20.85,6.361C20.85,6.384 20.85,6.408 20.85,6.431C20.852,6.581 20.922,6.723 21.043,6.827C21.096,6.878 21.163,6.916 21.236,6.939C21.149,7.045 21.095,7.17 21.081,7.301C21.042,7.577 21.169,8.403 21.371,9.008C21.274,9.383 21.189,9.745 21.106,9.789C20.778,9.968 20.585,10.292 20.603,10.633C20.603,10.65 20.603,10.665 20.609,10.681C20.499,10.705 20.399,10.754 20.319,10.824C20.133,10.992 20.082,11.245 20.191,11.459C19.83,11.592 19.593,11.907 19.593,12.254C19.593,12.372 19.62,12.488 19.672,12.596C19.615,12.729 19.595,12.873 19.612,13.014C19.624,13.129 19.663,13.24 19.724,13.341C19.712,13.369 19.703,13.398 19.697,13.427C19.427,13.42 19.166,13.519 18.985,13.698C18.851,13.826 18.77,13.99 18.757,14.165L18.619,14.199L18.551,14.215C18.269,14.007 17.872,13.97 17.548,14.121C17.248,14.263 17.049,14.532 17.023,14.834C16.944,14.846 16.866,14.863 16.791,14.885C16.655,14.925 16.528,14.985 16.415,15.062L16.364,15.096C16.323,15.072 16.286,15.052 16.268,15.046C16.088,14.961 15.881,14.934 15.682,14.97C15.411,15.024 15.184,15.187 15.068,15.411C15.04,15.465 15.014,15.52 14.99,15.576C14.89,15.568 14.791,15.552 14.694,15.526C14.211,15.421 13.898,15.757 13.887,16.086C14.25,16.177 14.571,16.351 14.984,16.243C15.573,16.089 16.039,15.813 16.676,15.773C17.121,15.748 17.352,15.883 17.585,15.52C17.641,15.432 17.72,15.356 17.815,15.299C17.857,15.216 17.906,15.135 17.961,15.058C17.987,15.049 18.013,15.04 18.04,15.032C18.09,15.028 18.137,15.025 18.192,15.023C18.691,15.004 19.192,15.011 19.642,14.777C19.869,14.654 20.054,14.479 20.178,14.27C20.241,14.223 20.301,14.173 20.358,14.121C20.517,13.981 20.649,13.819 20.751,13.642C20.977,13.55 21.184,13.426 21.364,13.273C21.354,13.244 21.343,13.215 21.328,13.187C21.425,12.982 21.48,12.964 21.741,12.843C21.824,12.715 21.889,12.577 21.934,12.434C21.95,12.383 21.963,12.331 21.974,12.28C22.224,11.917 22.457,11.544 22.668,11.161C23.033,10.928 23.178,10.613 23.295,10.251C23.368,10.025 23.428,9.188 23.145,8.431C22.893,7.794 22.489,7.476 22.497,7.439Z" style="fill:rgb(52,167,190);fill-rule:nonzero;"/>
        <path d="M15.502,13.282C15.897,12.719 15.102,12.196 14.574,12.464C14.71,12.493 14.849,12.51 14.989,12.515C14.816,12.787 14.607,13.041 14.368,13.271C13.581,13.271 12.937,13.765 12.471,14.284C12.419,14.342 12.376,14.406 12.342,14.474C11.816,14.723 11.348,15.057 11.203,15.605C11.193,15.645 11.185,15.685 11.179,15.725C11.104,15.824 11.067,15.942 11.073,16.062C11.459,16.188 11.961,16.034 11.989,15.595L12.026,15.595C12.145,15.587 12.262,15.56 12.37,15.515C12.642,15.402 12.819,15.162 12.829,14.895C12.822,14.842 12.813,14.788 12.805,14.735C12.805,14.724 12.805,14.715 12.805,14.706C12.852,14.706 12.91,14.701 12.921,14.706C13.214,14.738 13.511,14.677 13.759,14.534C13.892,14.454 13.999,14.343 14.067,14.213C14.184,14.203 14.312,14.183 14.329,14.179C14.861,14.072 15.224,13.676 15.502,13.282Z" style="fill:rgb(175,222,233);fill-rule:nonzero;"/>
        <path d="M18.346,4.83C18.393,4.684 18.393,4.529 18.346,4.383C18.392,4.28 18.425,4.173 18.443,4.063L17.811,4.019C17.672,4.387 17.309,4.655 16.877,4.708C16.863,5.158 16.517,5.55 16.029,5.669C15.826,5.718 15.613,5.716 15.412,5.663C15.249,5.87 14.979,5.989 14.696,5.98C14.637,5.98 14.578,5.975 14.52,5.965C14.536,5.965 14.551,5.971 14.568,5.973C14.761,6.276 14.899,6.48 14.698,6.788C14.661,6.845 14.583,6.951 14.499,7.054C14.372,7.194 14.207,7.303 14.02,7.373C13.325,7.631 13.119,9.758 13.576,10.086L13.57,10.13C13.662,10.164 13.746,10.215 13.814,10.281C13.888,10.342 13.946,10.418 13.985,10.502L13.948,10.546C13.91,10.586 13.873,10.626 13.831,10.663C13.802,10.689 13.776,10.718 13.753,10.749C13.508,10.847 13.354,11.069 13.366,11.308L13.366,11.341C13.361,11.5 13.426,11.655 13.549,11.771L13.529,11.779C13.576,11.839 13.626,11.896 13.679,11.951C13.746,11.969 13.815,11.978 13.885,11.979L13.908,11.992C14.473,12.289 15.184,12.276 15.504,11.695C15.635,11.453 15.658,11.175 15.567,10.918C15.527,10.814 15.476,10.714 15.414,10.619C15.596,10.529 15.744,10.394 15.841,10.23C15.951,10.041 15.972,8.278 15.966,8.068C15.966,7.942 15.884,7.589 16.037,7.498C16.181,7.418 16.285,7.292 16.328,7.147C16.489,7.078 16.627,6.973 16.727,6.841C16.821,6.72 16.88,6.58 16.898,6.434C17.069,6.405 17.235,6.356 17.391,6.287C17.739,6.131 18.061,5.685 17.906,5.331L17.955,5.301C18.141,5.188 18.279,5.022 18.346,4.83Z" style="fill:rgb(175,222,233);fill-rule:nonzero;"/>
        <path d="M11.872,16.772C11.736,16.774 11.601,16.74 11.485,16.676C11.264,16.641 11.078,16.508 10.99,16.324C10.888,16.114 10.907,15.873 11.041,15.678C11.046,15.642 11.053,15.608 11.062,15.575C11.232,14.935 11.796,14.587 12.232,14.379C12.267,14.318 12.309,14.26 12.359,14.207C12.972,13.519 13.626,13.165 14.303,13.146C14.467,12.985 14.615,12.813 14.746,12.63C14.645,12.618 14.545,12.599 14.447,12.572C14.019,12.448 13.653,12.194 13.412,11.855L13.316,11.727L13.327,11.722C13.257,11.606 13.221,11.477 13.223,11.346L13.223,11.312C13.212,11.036 13.382,10.778 13.658,10.651C13.68,10.625 13.704,10.6 13.73,10.576C13.761,10.549 13.79,10.52 13.818,10.49C13.791,10.449 13.759,10.412 13.721,10.379L13.713,10.373C13.66,10.32 13.593,10.279 13.52,10.253L13.423,10.215L13.434,10.137C13.144,9.828 13.176,9.03 13.248,8.582C13.303,8.244 13.484,7.439 13.974,7.258C14.134,7.196 14.275,7.101 14.384,6.981C14.466,6.881 14.541,6.779 14.577,6.722C14.727,6.492 14.653,6.357 14.453,6.048L14.444,6.034L14.515,5.999L14.547,5.836C14.597,5.844 14.648,5.848 14.698,5.848C14.934,5.859 15.16,5.761 15.297,5.59L15.356,5.515L15.452,5.541C15.628,5.587 15.814,5.589 15.991,5.546C16.417,5.441 16.719,5.099 16.732,4.706L16.732,4.597L16.853,4.581C17.231,4.533 17.547,4.3 17.67,3.979L17.712,3.884L18.647,3.949C19.73,3.798 20.014,4.292 20.08,4.512C20.109,4.61 20.12,4.711 20.111,4.813C20.428,4.788 20.827,4.973 21.356,5.275C21.889,5.58 21.809,6.222 21.743,6.491C21.887,6.535 22.025,6.593 22.155,6.663C22.513,6.859 22.681,7.118 22.644,7.413L22.675,7.447C22.938,7.729 23.142,8.051 23.278,8.397C23.568,9.166 23.518,10.027 23.43,10.296C23.326,10.619 23.181,10.984 22.778,11.256C22.566,11.634 22.34,11.996 22.108,12.334C22.098,12.379 22.085,12.426 22.071,12.474C21.891,13.034 21.446,13.498 20.852,13.745C20.748,13.919 20.615,14.078 20.457,14.217C20.409,14.26 20.354,14.303 20.286,14.354C20.149,14.575 19.949,14.76 19.706,14.889C19.27,15.117 18.794,15.132 18.334,15.147L18.191,15.152C18.147,15.152 18.105,15.152 18.063,15.158L18.049,15.158C18.016,15.207 17.987,15.262 17.953,15.318L17.917,15.383L17.884,15.403C17.808,15.448 17.745,15.509 17.7,15.581C17.481,15.919 17.228,15.908 16.959,15.898C16.864,15.893 16.769,15.893 16.675,15.898C16.288,15.921 15.97,16.037 15.629,16.162C15.429,16.239 15.223,16.307 15.014,16.364C14.654,16.457 14.363,16.364 14.081,16.278C13.893,16.208 13.692,16.169 13.488,16.164C13.207,16.171 12.966,16.267 12.703,16.476L12.67,16.503C12.556,16.594 12.401,16.715 12.191,16.704C12.092,16.748 11.983,16.772 11.872,16.772ZM14.362,13.4C13.757,13.4 13.158,13.724 12.585,14.364C12.54,14.414 12.502,14.468 12.473,14.526L12.452,14.566L12.408,14.587C11.794,14.876 11.455,15.208 11.344,15.634C11.336,15.668 11.329,15.703 11.323,15.742L11.318,15.773L11.298,15.799C11.205,15.924 11.19,16.083 11.256,16.221C11.307,16.333 11.424,16.412 11.56,16.425L11.596,16.43L11.625,16.449C11.697,16.493 11.784,16.516 11.872,16.514C11.951,16.516 12.029,16.498 12.096,16.462L12.145,16.436L12.201,16.445C12.298,16.462 12.37,16.406 12.491,16.313L12.526,16.285C12.838,16.036 13.147,15.916 13.493,15.908C13.733,15.91 13.97,15.954 14.192,16.037C14.451,16.118 14.675,16.189 14.946,16.118C15.144,16.064 15.339,16 15.53,15.927C15.877,15.801 16.235,15.669 16.667,15.645C16.772,15.64 16.878,15.64 16.983,15.645C17.234,15.656 17.329,15.659 17.46,15.457C17.52,15.361 17.602,15.278 17.701,15.213C17.741,15.133 17.788,15.055 17.841,14.981L17.867,14.947L17.933,14.924L17.996,14.905L18.026,14.898C18.079,14.894 18.133,14.892 18.187,14.89L18.331,14.885C18.775,14.87 19.194,14.856 19.567,14.661C19.772,14.551 19.939,14.393 20.05,14.203L20.064,14.181L20.087,14.165C20.146,14.124 20.202,14.081 20.256,14.035C20.404,13.904 20.528,13.753 20.622,13.587L20.646,13.548L20.692,13.529C21.229,13.317 21.634,12.903 21.795,12.4C21.81,12.352 21.822,12.304 21.832,12.258L21.832,12.234L21.846,12.214C22.084,11.869 22.315,11.496 22.534,11.108L22.55,11.08L22.579,11.061C22.894,10.86 23.032,10.589 23.151,10.219C23.22,10.007 23.275,9.204 23.003,8.476C22.877,8.158 22.689,7.863 22.448,7.603C22.373,7.517 22.336,7.48 22.351,7.412C22.448,6.903 21.545,6.704 21.535,6.701L21.386,6.669L21.431,6.538C21.431,6.531 21.685,5.764 21.197,5.489C20.767,5.243 20.336,5.022 20.092,5.072C20.066,5.077 20.041,5.087 20.019,5.1C19.986,5.162 19.93,5.211 19.86,5.24L19.454,5.391L19.681,5.055C19.71,5.01 19.747,4.969 19.79,4.932C19.84,4.794 19.833,4.645 19.771,4.512C19.636,4.228 19.256,4.124 18.676,4.206L18.659,4.206L17.91,4.154C17.746,4.487 17.415,4.734 17.017,4.819C16.944,5.395 16.389,5.836 15.737,5.836C15.647,5.836 15.558,5.828 15.47,5.811C15.303,5.981 15.069,6.086 14.816,6.104C14.95,6.335 15.016,6.56 14.825,6.852C14.785,6.913 14.706,7.024 14.617,7.129C14.475,7.288 14.289,7.413 14.079,7.492C13.841,7.578 13.625,8.021 13.528,8.615C13.418,9.295 13.513,9.872 13.671,9.985L13.732,10.03L13.732,10.055C13.804,10.091 13.869,10.137 13.926,10.189C14.012,10.262 14.081,10.35 14.128,10.447L14.16,10.516L14.073,10.619C14.033,10.662 13.991,10.706 13.942,10.749C13.92,10.77 13.9,10.792 13.882,10.815L13.855,10.852L13.818,10.867C13.625,10.945 13.504,11.121 13.515,11.309L13.515,11.343C13.509,11.47 13.561,11.594 13.658,11.687L13.802,11.821L13.757,11.839C13.954,12.066 14.223,12.236 14.53,12.326C14.68,12.365 14.836,12.387 14.992,12.391L15.23,12.399L15.113,12.584C14.933,12.865 14.718,13.126 14.471,13.364L14.429,13.405L14.359,13.405L14.362,13.4Z" style="fill:rgb(112,197,216);fill-rule:nonzero;"/>
    </g>
    <g id="gbodypart2">
        <path d="M14.548,5.842C14.308,5.817 14.093,5.682 13.967,5.476C13.882,5.45 13.798,5.419 13.716,5.385C13.23,5.421 12.778,5.117 12.631,4.652C12.233,4.19 12.037,3.587 12.087,2.98C11.996,2.734 12.097,2.919 11.983,2.472C11.882,2.087 11.819,1.669 11.281,1.669C10.604,1.669 10.521,2.595 10.285,3.015C10.226,3.118 10.154,3.213 10.07,3.297C10.055,3.388 10.032,3.478 10.002,3.566C9.985,3.613 9.966,3.657 9.947,3.699C9.928,3.74 9.923,3.785 9.91,3.826C9.889,3.85 9.868,3.874 9.845,3.897C9.84,3.903 9.828,3.914 9.811,3.927L9.795,3.951C9.795,3.96 9.795,3.97 9.786,3.98C9.66,4.38 9.349,4.697 8.95,4.83C8.551,4.963 8.95,4.837 8.95,4.842C8.571,5.28 7.903,5.339 7.452,4.975C7.067,4.928 6.719,4.792 6.518,4.467C6.341,4.316 6.208,4.119 6.134,3.899C6.022,3.56 6.032,3.192 6.163,2.859C6.127,2.83 6.087,2.804 6.046,2.781C5.921,2.58 5.715,2.441 5.481,2.402C5.305,2.45 5.123,2.474 4.941,2.473C4.148,2.671 3.606,3.159 3.421,4.049C3.379,4.252 3.355,4.46 3.33,4.665C3.307,4.848 3.296,4.974 3.278,5.072C3.269,5.123 3.258,5.172 3.246,5.222C3.043,5.219 2.844,5.278 2.674,5.39C2.192,5.708 1.983,6.313 2.033,6.869C2.033,6.878 2.033,6.889 2.033,6.898C1.972,6.892 1.911,6.892 1.85,6.898C1.069,6.978 0.841,9.39 0.779,10.019C0.77,10.118 0.766,10.218 0.768,10.318C0.633,10.477 0.55,10.674 0.53,10.881C0.439,11.64 0.979,12.026 1.613,12.242C1.556,12.943 1.87,13.64 2.577,13.958C2.738,14.03 2.91,14.078 3.085,14.099C3.156,14.17 3.234,14.234 3.317,14.291C3.858,14.657 4.546,14.649 5.144,14.439C5.424,14.339 5.695,14.214 5.952,14.066C6.077,13.994 6.197,13.915 6.319,13.84L6.404,13.787C6.412,13.797 6.42,13.807 6.427,13.815C6.627,14.04 6.908,14.177 7.209,14.196C7.77,14.225 8.251,13.882 8.506,13.396C8.584,13.247 8.646,13.09 8.691,12.928C9.297,13.202 10.025,12.836 10.379,12.311L10.385,12.301C10.457,12.29 10.53,12.279 10.602,12.27C10.79,12.243 10.97,12.173 11.125,12.064C11.443,12.432 11.963,12.559 12.415,12.379C12.505,12.397 12.598,12.4 12.689,12.387C13.227,12.272 13.403,11.746 13.403,11.552L13.403,11.516L13.408,11.516C13.397,11.262 13.542,11.026 13.774,10.921C13.796,10.889 13.821,10.858 13.849,10.83C13.888,10.791 13.924,10.748 13.96,10.705L13.994,10.659C13.958,10.569 13.903,10.489 13.832,10.423C13.768,10.354 13.689,10.299 13.601,10.263L13.607,10.217C13.174,9.867 13.369,7.602 14.027,7.33C14.204,7.256 14.36,7.139 14.48,6.99C14.56,6.881 14.633,6.769 14.669,6.706C14.862,6.381 14.733,6.164 14.548,5.842Z" style="fill:rgb(41,171,226);fill-rule:nonzero;stroke:rgb(37,169,224);stroke-width:0.09px;"/>
        <path d="M14.548,5.842C14.406,5.827 14.271,5.773 14.157,5.687C14.054,5.767 13.978,5.876 13.938,6.001C13.841,6.016 13.748,6.05 13.664,6.101C13.42,6.246 13.165,6.429 12.875,6.446C12.529,6.473 12.233,6.391 11.902,6.558C11.417,6.806 11.338,7.285 11.48,7.724L11.285,7.871C11.143,7.928 11.01,9.67 10.925,9.793L10.834,9.922C10.633,10.205 10.728,10.553 10.946,10.786C10.871,10.802 10.798,10.826 10.728,10.856C10.449,10.993 10.229,11.228 10.112,11.515C10.037,11.671 9.971,11.831 9.913,11.994C9.878,11.984 9.844,11.973 9.81,11.96C9.698,11.925 9.587,11.882 9.471,11.855C9.124,11.763 8.754,11.812 8.442,11.99C8.147,12.168 7.984,12.457 7.863,12.769C7.819,12.861 7.787,12.958 7.766,13.058C7.766,13.072 7.766,13.084 7.766,13.096C7.624,13.114 7.483,13.122 7.342,13.135C7.141,12.996 6.901,12.926 6.657,12.932C6.275,12.938 5.918,13.126 5.698,13.438C5.467,13.633 5.284,13.878 5.16,14.153C5.112,14.25 5.083,14.355 5.074,14.462C5.1,14.454 5.125,14.446 5.15,14.437C5.43,14.338 5.7,14.213 5.958,14.064C6.082,13.992 6.203,13.914 6.324,13.839L6.41,13.785C6.418,13.796 6.425,13.806 6.433,13.813C6.63,14.038 6.91,14.175 7.209,14.196C7.77,14.225 8.251,13.882 8.506,13.396C8.584,13.247 8.646,13.09 8.691,12.928C9.297,13.202 10.025,12.836 10.379,12.311L10.385,12.301C10.457,12.29 10.53,12.279 10.602,12.27C10.79,12.243 10.97,12.173 11.125,12.064C11.443,12.432 11.963,12.559 12.415,12.379C12.505,12.4 12.598,12.402 12.689,12.387C13.227,12.272 13.403,11.746 13.403,11.552L13.403,11.516L13.408,11.516C13.397,11.262 13.542,11.026 13.774,10.921C13.796,10.889 13.821,10.858 13.849,10.83C13.888,10.791 13.924,10.748 13.96,10.705L13.994,10.659C13.958,10.569 13.903,10.489 13.832,10.423C13.768,10.354 13.689,10.299 13.601,10.263L13.607,10.217C13.174,9.867 13.369,7.602 14.027,7.33C14.204,7.256 14.36,7.139 14.48,6.99C14.56,6.881 14.633,6.769 14.669,6.706C14.862,6.381 14.733,6.164 14.548,5.842Z" style="fill:rgb(32,131,198);fill-rule:nonzero;"/>
        <path d="M11.281,1.669C10.604,1.669 10.521,2.595 10.285,3.015C10.226,3.118 10.154,3.213 10.07,3.297C10.055,3.388 10.032,3.478 10.002,3.566C9.985,3.613 9.966,3.657 9.947,3.699C9.928,3.74 9.923,3.785 9.91,3.826C9.889,3.85 9.868,3.874 9.845,3.897C9.84,3.903 9.828,3.914 9.811,3.927L9.795,3.951C9.795,3.96 9.795,3.97 9.786,3.98C9.66,4.38 9.349,4.697 8.95,4.83C8.551,4.963 8.95,4.837 8.95,4.842C8.903,4.895 8.851,4.943 8.795,4.986C8.924,5.035 9.067,5.035 9.196,4.986C9.716,4.782 10.152,4.504 10.372,4.089C10.532,4.033 10.677,3.94 10.796,3.819C10.978,3.636 11.084,3.391 11.092,3.133C11.087,3.022 11.066,2.913 11.028,2.808C11.121,2.733 11.201,2.643 11.264,2.542C11.321,2.436 11.357,2.32 11.372,2.2L11.401,2.195C11.566,2.171 11.715,2.083 11.815,1.95C11.714,1.785 11.563,1.669 11.281,1.669Z" style="fill:rgb(120,223,255);fill-rule:nonzero;"/>
        <path d="M5.968,2.676C5.845,2.528 5.672,2.43 5.481,2.402C5.305,2.45 5.123,2.474 4.941,2.473C4.148,2.671 3.606,3.159 3.421,4.049C3.379,4.252 3.355,4.46 3.33,4.665C3.307,4.848 3.296,4.974 3.278,5.072C3.269,5.123 3.258,5.172 3.246,5.222C3.043,5.219 2.844,5.278 2.674,5.39C2.192,5.708 1.983,6.313 2.033,6.869C2.033,6.878 2.033,6.889 2.033,6.898C1.972,6.892 1.911,6.892 1.85,6.898C1.069,6.978 0.512,8.205 0.532,8.836C0.552,9.483 0.767,10.218 0.768,10.318C0.633,10.477 0.55,10.674 0.53,10.881C0.439,11.64 0.979,12.026 1.613,12.242C1.556,12.943 1.87,13.64 2.577,13.958C2.738,14.03 2.91,14.078 3.085,14.099C3.124,14.138 3.166,14.174 3.208,14.209C3.451,13.771 3.249,13.084 2.599,13.098C2.494,13.098 2.492,13.153 2.416,13.037C2.39,13.006 2.368,12.972 2.351,12.936C2.296,12.775 2.502,12.377 2.497,12.189C2.493,12.086 2.475,11.983 2.444,11.884C2.707,11.663 2.87,11.244 2.641,10.932C2.608,10.888 2.543,10.811 2.556,10.749C1.864,10.585 1.902,9.45 2.67,9.391C2.626,9.14 2.718,8.883 2.913,8.717C2.884,8.301 2.817,7.954 2.714,7.846C3.204,8.043 3.635,7.802 3.744,7.359L3.789,7.315C3.876,7.232 3.955,7.14 4.024,7.04C4.18,6.81 4.235,6.526 4.176,6.254C4.156,6.175 4.125,6.099 4.085,6.028C4.101,5.946 4.105,5.861 4.098,5.777C4.218,5.745 4.328,5.682 4.417,5.594C4.783,5.228 4.632,4.881 4.518,4.451C4.497,4.392 4.484,4.33 4.481,4.268C4.481,4.262 4.481,4.258 4.481,4.253C4.664,4.142 4.838,4.09 4.972,3.88C5.021,3.803 5.048,3.612 5.082,3.473C5.196,3.426 5.313,3.387 5.433,3.354C5.756,3.296 5.987,3.003 5.968,2.676Z" style="fill:rgb(120,223,255);fill-rule:nonzero;"/>
        <path d="M4.333,14.767C3.937,14.773 3.548,14.66 3.216,14.443C3.14,14.392 3.069,14.335 3.003,14.272C2.83,14.246 2.662,14.196 2.502,14.125C1.813,13.815 1.409,13.15 1.424,12.369C0.623,12.058 0.262,11.555 0.349,10.858C0.371,10.645 0.449,10.441 0.575,10.267C0.567,10.229 0.556,10.175 0.545,10.13C0.441,9.707 0.375,9.276 0.349,8.842C0.327,8.153 0.924,6.812 1.832,6.715L1.842,6.715C1.842,6.102 2.116,5.536 2.575,5.235C2.732,5.132 2.911,5.066 3.098,5.045L3.098,5.038C3.108,4.982 3.116,4.912 3.126,4.824C3.133,4.77 3.139,4.709 3.148,4.641L3.153,4.603C3.176,4.41 3.2,4.209 3.244,4.011C3.434,3.1 3.99,2.523 4.899,2.298L4.918,2.291L4.941,2.291C5.106,2.292 5.271,2.27 5.431,2.226L5.468,2.219L5.503,2.219C5.775,2.259 6.018,2.411 6.173,2.638C6.209,2.66 6.243,2.684 6.277,2.71L6.385,2.794L6.334,2.922C6.217,3.214 6.206,3.537 6.302,3.837C6.366,4.026 6.481,4.195 6.633,4.325L6.652,4.342L6.667,4.365C6.819,4.602 7.081,4.741 7.47,4.789L7.521,4.796L7.562,4.828C7.721,4.959 7.92,5.031 8.125,5.032C8.372,5.032 8.608,4.93 8.778,4.751L8.793,4.693L8.885,4.659C9.233,4.548 9.507,4.274 9.618,3.927L9.633,3.876L9.648,3.853L9.67,3.821L9.683,3.804L9.699,3.791L9.721,3.771C9.732,3.761 9.743,3.75 9.752,3.738C9.76,3.711 9.768,3.684 9.774,3.657L9.785,3.627C9.803,3.589 9.82,3.55 9.835,3.509C9.862,3.43 9.882,3.35 9.895,3.268L9.906,3.213L9.945,3.172C10.016,3.099 10.078,3.018 10.128,2.929C10.191,2.805 10.243,2.676 10.285,2.543C10.439,2.095 10.654,1.486 11.281,1.486C11.922,1.486 12.05,1.985 12.141,2.349L12.161,2.429C12.199,2.553 12.222,2.681 12.227,2.81L12.227,2.822C12.234,2.855 12.245,2.887 12.259,2.918L12.273,2.956L12.273,2.997C12.228,3.554 12.407,4.108 12.77,4.533L12.797,4.562L12.809,4.599C12.833,4.679 12.869,4.754 12.916,4.824C13.09,5.084 13.392,5.231 13.705,5.208L13.749,5.208L13.789,5.224C13.866,5.256 13.944,5.284 14.023,5.308L14.089,5.327L14.125,5.386C14.224,5.542 14.39,5.643 14.573,5.66L14.665,5.671L14.717,5.763C14.901,6.083 15.076,6.386 14.834,6.802C14.771,6.905 14.704,7.005 14.631,7.101C14.491,7.277 14.308,7.414 14.101,7.502C13.894,7.588 13.696,8.051 13.608,8.661C13.497,9.423 13.608,9.981 13.725,10.077L13.804,10.141L13.804,10.163C13.864,10.2 13.919,10.245 13.968,10.297C14.055,10.38 14.123,10.481 14.169,10.592L14.21,10.689L14.108,10.823C14.068,10.872 14.026,10.92 13.982,10.965C13.962,10.984 13.945,11.006 13.93,11.028L13.902,11.072L13.855,11.093C13.687,11.167 13.583,11.339 13.594,11.522L13.594,11.705L13.573,11.705C13.488,12.134 13.157,12.474 12.731,12.572C12.632,12.59 12.531,12.59 12.433,12.572C11.971,12.732 11.456,12.626 11.094,12.297C10.948,12.376 10.79,12.428 10.626,12.45L10.492,12.469C10.125,12.971 9.438,13.327 8.808,13.162C8.767,13.271 8.719,13.377 8.666,13.48C8.358,14.064 7.796,14.409 7.2,14.377C6.891,14.359 6.599,14.232 6.375,14.02L6.299,14.067C6.214,14.12 6.13,14.173 6.044,14.223C5.777,14.377 5.496,14.507 5.205,14.61C4.925,14.711 4.63,14.764 4.333,14.767ZM1.951,7.078C1.925,7.078 1.9,7.08 1.875,7.083C1.21,7.149 0.702,8.282 0.715,8.831C0.74,9.242 0.801,9.65 0.899,10.05C0.923,10.137 0.939,10.225 0.948,10.315L0.948,10.386L0.9,10.439C0.79,10.57 0.722,10.733 0.707,10.904C0.638,11.453 0.943,11.819 1.667,12.069L1.802,12.115L1.791,12.257C1.734,12.941 2.066,13.528 2.647,13.791C2.792,13.856 2.947,13.899 3.105,13.918L3.168,13.925L3.212,13.969C3.275,14.032 3.344,14.089 3.418,14.139C3.86,14.436 4.467,14.483 5.082,14.266C5.351,14.17 5.612,14.05 5.86,13.907C5.941,13.86 6.021,13.809 6.102,13.759L6.221,13.685L6.444,13.548L6.567,13.69C6.733,13.88 6.968,13.996 7.22,14.012C7.678,14.035 8.106,13.767 8.346,13.311C8.417,13.174 8.475,13.03 8.519,12.882L8.574,12.673L8.771,12.765C9.293,12.999 9.92,12.673 10.227,12.216L10.267,12.138L10.359,12.12C10.433,12.109 10.507,12.098 10.581,12.088C10.74,12.066 10.891,12.007 11.022,11.915L11.161,11.817L11.269,11.947C11.471,12.188 11.782,12.31 12.094,12.272C12.179,12.263 12.263,12.242 12.343,12.21L12.393,12.189L12.448,12.2C12.514,12.216 12.583,12.219 12.651,12.209C12.96,12.134 13.19,11.87 13.22,11.553L13.22,11.335L13.242,11.335C13.286,11.097 13.437,10.892 13.653,10.78C13.673,10.753 13.695,10.727 13.719,10.704C13.74,10.683 13.758,10.662 13.777,10.641C13.757,10.611 13.733,10.584 13.707,10.56L13.697,10.551C13.651,10.5 13.595,10.461 13.532,10.434L13.404,10.381L13.416,10.283C13.141,9.928 13.174,9.084 13.243,8.609C13.296,8.243 13.472,7.365 13.959,7.163C14.104,7.103 14.232,7.009 14.333,6.889C14.411,6.781 14.48,6.675 14.511,6.622C14.631,6.414 14.589,6.293 14.431,6.012C14.197,5.964 13.99,5.831 13.85,5.638C13.792,5.62 13.737,5.6 13.684,5.579C13.142,5.602 12.646,5.266 12.468,4.755C12.063,4.269 11.86,3.646 11.9,3.016C11.873,2.953 11.859,2.885 11.858,2.816C11.853,2.718 11.834,2.621 11.804,2.527L11.783,2.445C11.692,2.059 11.621,1.859 11.279,1.859C10.937,1.859 10.793,2.195 10.626,2.668C10.577,2.82 10.516,2.969 10.443,3.111C10.385,3.211 10.316,3.305 10.238,3.39C10.222,3.472 10.2,3.554 10.172,3.633C10.155,3.681 10.136,3.724 10.118,3.765C10.1,3.807 10.095,3.848 10.082,3.887L10.07,3.924L10.033,3.968C10.013,3.99 9.994,4.012 9.972,4.033L9.957,4.048C9.818,4.481 9.488,4.827 9.062,4.986C8.822,5.249 8.481,5.399 8.125,5.398C7.854,5.399 7.59,5.311 7.374,5.148C6.908,5.081 6.579,4.897 6.371,4.586C6.181,4.415 6.037,4.199 5.954,3.958C5.846,3.625 5.842,3.267 5.943,2.933L5.92,2.922L5.894,2.882C5.803,2.736 5.659,2.631 5.492,2.59C5.32,2.635 5.142,2.657 4.964,2.658C4.206,2.852 3.759,3.317 3.601,4.084C3.563,4.267 3.54,4.459 3.518,4.645L3.518,4.684C3.508,4.752 3.502,4.812 3.496,4.867C3.485,4.959 3.476,5.036 3.464,5.103C3.452,5.17 3.443,5.211 3.43,5.264L3.397,5.405L3.25,5.405C3.083,5.404 2.92,5.452 2.781,5.543C2.389,5.796 2.169,6.31 2.214,6.851C2.214,6.862 2.214,6.87 2.214,6.878L2.236,7.094L2.018,7.077L1.951,7.078Z" style="fill:rgb(37,169,224);fill-rule:nonzero;"/>
    </g>
</svg>
