<?xml version="1.0" encoding="UTF-8" standalone="no"?>
<!DOCTYPE svg PUBLIC "-//W3C//DTD SVG 1.1//EN" "http://www.w3.org/Graphics/SVG/1.1/DTD/svg11.dtd">
<svg width="100%" height="100%" viewBox="0 0 1294 798" version="1.1" xmlns="http://www.w3.org/2000/svg" xmlns:xlink="http://www.w3.org/1999/xlink" xml:space="preserve" xmlns:serif="http://www.serif.com/" style="fill-rule:evenodd;clip-rule:evenodd;stroke-linejoin:round;stroke-miterlimit:1.41421;">
    <g transform="matrix(1,0,0,1,1,-1)">
        <g id="hexagon-path">
            <path d="M648,1C648,1 841.428,129.4 745,192C702.274,235.999 672.779,179.396 674,221" style="fill:none;"/>
            <path d="M639,2C651.404,50.999 787.021,91.796 779,202C662.783,221.466 669.664,193.029 622,203C574.336,212.971 556.967,212.282 545,200C533.033,187.718 509.318,38.704 448,39C386.682,39.296 339.243,32.577 331,65C344.872,158.436 426.279,186.992 440,238C414.423,256.236 367.178,240.335 326.115,244.483C276.568,249.489 233.744,273.2 219,284C198.15,258.862 148.264,220.742 129,213C79.846,193.246 44.333,193 2,183" style="fill:none;"/>
            <path d="M-1,167C-1,167 278.225,272.535 263,314C247.775,355.465 180.807,321.992 178,436C175.193,550.008 231.268,477.652 276,574C185.275,578.848 167.943,567.125 144,577C104.693,551.52 56.713,555.792 47,557C37.287,558.208 26.482,572.417 17,593C7.518,613.583 -9.693,710.488 76,710C161.693,709.512 249.791,677.394 314,720C378.209,762.606 409.682,767.667 410,768" style="fill:none;"/>
            <path d="M1281,362C1281,362 1161.32,393.312 1161,393C1160.68,392.688 1144.08,358.281 1074,355C1003.92,351.719 972.115,427.984 948,467C923.885,506.016 916.545,516.476 958,546C999.455,575.524 1091.22,478.98 1112,473C1132.78,467.02 1185.75,454.628 1201,573C1199.49,586.086 1171,596 1171,596L1142,643L1097,650L1054,692C1054,692 991.607,706.191 960,747C928.393,787.809 905,799 905,799" style="fill:none;"/>
            <path d="M397,771C397,771 355.447,733.726 316,720C276.553,706.274 222.232,700.628 184,708C145.768,715.372 137.119,691.375 102,695C66.881,698.625 9,682 9,682C9,682 -3.928,611.097 37,570C77.928,528.903 208.271,585.683 277,584C238.611,515.047 176.416,489.343 179,465C181.584,440.657 175.295,371.144 227,341C278.705,310.856 271,310 271,310L199,267C199,267 116.654,200.617 85,196C53.346,191.383 30.396,203.636 6,198" style="fill:none;"/>
            <path d="M685,4C685,4 814.838,151.398 758,216C701.162,280.602 803.057,279.457 813,275C822.943,270.543 889.502,211.421 926,184C962.498,156.579 1045.58,70.804 1086,224C1063.43,221.368 1054,249 1054,249L1050,279L1029,271L1027,294C1027,294 1005.91,295.8 1001,315C996.092,334.2 999.83,428 1202,374C1228.67,365.848 1256.63,354.324 1278,365" style="fill:none;"/>
            <path d="M901,792C901,792 1011.62,697.457 1054,677C1096.38,656.543 1190.71,609.524 1197,568C1203.29,526.476 1156.83,461.34 1110,465C1102.01,480.492 1091,495 1091,495L1056,502C1056,502 1055.78,524.492 1039,538C1022.23,551.508 891.545,583.555 946,452C1000.46,320.445 1003.01,382.41 1057,354C1072.16,388.668 1103,392 1103,392C1103,392 1214.98,352.981 1266,356C1317.02,359.019 1278,363 1278,363" style="fill:none;"/>
        </g>
    </g>
</svg>
